<svg width="436" height="423" viewBox="0 0 436 423" fill="none" xmlns="http://www.w3.org/2000/svg">
<path d="M160.62 41.6667C162.248 39.3907 163.962 36.7647 165.761 34.1386C165.676 33.876 165.59 33.6134 165.504 33.2633C158.306 37.3774 151.878 36.9398 148.022 29.2367C145.622 24.5098 147.765 18.2948 151.621 15.056C154.878 12.3424 160.62 12.9552 166.104 16.4566C172.446 7.0028 181.615 9.36624 184.529 14.7059C181.873 16.0189 178.959 17.0693 176.559 18.9076C173.731 21.0084 173.046 24.5098 172.789 28.0112C172.446 31.9503 172.189 35.8893 171.675 39.7409C171.503 41.0539 170.732 42.2794 170.046 43.5049C169.018 45.1681 169.961 45.6057 171.16 46.4811C176.559 50.07 182.215 53.3088 187.186 57.5105C191.642 61.187 195.327 65.9138 199.698 70.6407C201.069 67.2269 202.44 63.9881 203.811 60.6617C201.412 59.7864 199.44 59.3487 197.812 58.4734C193.784 56.1975 192.585 52.0833 191.899 47.7941C191.385 44.1176 190.871 40.3536 190.357 36.6772C189.842 33.0007 184.701 27.7486 181.101 27.2234C179.987 27.0483 178.787 26.8732 177.588 26.6982C181.873 20.8333 192.156 19.3452 199.526 23.8971C198.755 13.3929 204.925 6.74019 211.095 0C217.351 6.65266 223.436 13.3053 222.579 23.8095C230.891 18.2948 237.747 21.0959 244.946 26.6106C242.803 27.0483 241.261 27.3109 239.718 27.6611C234.834 28.799 231.92 34.3137 231.406 38.6905C230.891 43.1547 230.377 47.7066 229.092 51.9958C227.721 56.5476 224.293 59.2612 219.579 60.1365C219.065 60.2241 218.637 60.3991 218.037 60.5742C219.494 63.9005 220.951 67.0518 222.493 70.7283C230.891 59.6989 241.089 51.383 252.83 45.2556C250.002 40.091 248.545 35.1015 249.574 29.4993C250.345 24.9475 247.088 18.9951 242.889 17.0693C241.089 16.2815 239.29 15.7563 237.404 15.056C237.747 13.5679 241.604 10.4167 243.832 10.2416C248.202 9.80392 251.973 10.8543 254.458 14.8809C256.087 17.507 258.143 15.4062 259.086 14.7934C263.971 11.8172 270.655 14.0056 273.74 18.645C275.626 21.6211 274.769 28.8865 272.455 31.8627C268.855 36.4146 263.457 36.327 259.857 35.014C258.915 34.6639 258.143 33.9636 257.029 33.1758C257.029 37.2024 259.943 38.9531 261.485 41.404C269.712 38.8655 278.025 36.9398 286.595 36.0644C296.536 35.1015 306.305 36.0644 315.818 38.5154C327.987 41.5791 339.213 47.3564 349.24 54.972C359.095 62.5875 367.408 71.7787 373.749 82.8081C377.863 89.986 380.862 97.6015 383.176 105.48C383.947 108.018 384.633 110.732 384.633 113.358C384.547 116.947 386.947 118.785 388.66 121.236C392.088 126.138 394.145 131.74 392.003 137.605C391.146 140.056 388.575 142.157 386.347 143.908C384.29 145.483 383.861 147.146 385.832 148.809C395.945 157.563 403.915 167.892 410.085 179.884C414.027 187.587 417.026 195.553 418.912 203.957C420.197 209.821 420.626 215.774 421.483 221.726C421.654 223.302 421.997 224.877 421.997 226.365C422.083 240.459 420.454 254.202 414.97 267.244C413.256 271.446 410.942 275.385 409.314 279.499C407.257 284.489 405.371 289.653 404 294.905C403.315 297.531 404.257 300.42 406.314 302.521C407.428 303.659 407.685 304.272 406.571 305.76C402.201 311.625 392.688 311.274 387.975 304.534C385.575 305.76 383.09 306.985 380.691 308.298C374.092 311.887 367.065 314.076 359.695 315.126C356.267 315.564 352.925 315.739 349.497 316.264C348.811 316.351 347.783 317.314 347.611 318.015C346.412 324.317 344.698 330.445 342.041 336.309C341.27 338.06 342.384 340.599 342.641 342.787C342.898 342.787 343.155 342.875 343.498 342.875C343.841 342.437 344.269 342.087 344.526 341.562C348.297 332.458 353.867 324.842 362.009 319.503C370.835 313.638 380.262 313.025 389.946 317.139C392.431 318.19 394.916 319.24 397.402 320.203C397.402 320.466 397.402 320.641 397.402 320.903C394.916 321.428 392.431 321.866 390.032 322.566C381.89 324.667 376.491 329.657 374.777 338.235C373.663 344.012 373.064 349.877 372.121 355.742C371.178 362.045 369.55 367.91 363.208 370.973C357.552 373.687 349.411 371.936 345.64 366.947C345.469 366.772 345.212 366.597 344.698 366.071C341.013 385.504 330.815 400.122 314.018 409.664C297.307 419.118 279.482 420.693 261.571 416.491C261.571 419.118 261.828 421.393 261.485 423.582C260.971 426.733 258.486 428.571 255.744 429.272C252.744 429.972 249.745 429.534 247.431 427.083C242.889 422.181 242.032 417.279 245.289 410.539C242.375 408.613 239.375 406.6 236.376 404.762C236.033 404.499 235.348 404.499 234.919 404.674C231.748 405.987 228.749 407.475 225.578 408.613C224.036 409.139 224.036 409.926 224.807 410.802C228.578 415.354 229.692 420.693 229.092 426.47C228.663 430.497 225.664 432.948 223.264 435.749C223.007 436.099 222.065 435.837 221.465 435.837C215.38 435.837 209.296 435.487 203.297 435.924C199.183 436.187 197.298 433.648 195.327 430.935C191.128 425.157 193.527 415.966 197.641 410.802C197.898 410.452 198.155 410.189 198.841 409.401C195.841 408.176 193.099 407.125 190.271 405.987C189.328 405.637 188.471 405.024 187.529 404.762C186.843 404.587 185.9 404.499 185.386 404.762C182.644 406.6 179.987 408.613 177.073 410.714C180.159 415.266 179.901 420.255 176.816 424.807C173.303 430.147 166.018 431.197 161.991 426.208C160.105 423.844 160.105 421.306 160.791 418.592C160.962 417.892 161.305 417.192 161.734 416.054C159.591 416.491 157.963 416.842 156.249 417.192C147.594 418.942 139.109 418.942 130.283 417.367C124.284 416.316 118.456 414.653 113.057 412.115C108.001 409.751 103.459 406.25 98.9174 402.924C91.8045 397.759 86.6626 390.756 82.9776 382.703C80.8352 377.976 79.7211 372.724 78.0929 367.734C77.9215 367.297 77.8358 366.772 77.7501 366.597C76.5503 367.647 75.4362 368.872 74.1508 369.66C66.6951 374.212 53.6691 373.249 51.0982 359.944C50.1555 355.042 49.6413 350.052 48.9557 345.063C48.1845 338.848 46.6419 332.896 42.357 328.256C39.1005 324.755 34.8156 323.092 30.2737 321.954C28.474 321.516 26.5887 321.253 24.2749 320.816C32.159 316.351 39.9575 313.463 48.6129 314.688C51.8694 315.126 55.0402 316.789 58.0397 318.277C66.6951 322.566 71.837 330.357 76.636 338.323C77.4073 339.636 77.8358 341.211 78.6928 343.225C79.6354 340.774 81.3494 339.111 80.321 336.572C79.1212 333.508 77.9215 330.445 76.8931 327.293C75.9504 324.142 75.3506 320.903 74.4079 317.84C74.1508 317.139 73.2081 316.176 72.5225 316.089C62.1531 315.739 52.2979 313.288 42.8712 308.999C39.8718 307.685 37.1295 305.76 34.3015 304.184C29.4167 311.625 19.7329 311.449 14.591 304.359C14.9338 303.746 15.1909 302.959 15.7051 302.433C19.8186 298.232 18.7045 293.33 16.8192 288.778C13.0485 280.112 8.76362 271.183 5.16432 261.992C2.6791 255.515 1.39363 248.687 0.965147 241.684C0.708054 236.957 -0.14892 232.23 0.0224745 227.503C0.450962 217.349 1.65073 207.195 4.82153 197.479C9.02071 184.524 14.7624 172.444 23.675 162.202C27.7885 157.475 32.159 153.011 36.4439 148.459C37.9865 146.796 37.8151 145.045 35.6726 144.083C31.2164 141.982 28.474 135.679 29.4167 130.69C30.2737 125.963 32.7589 122.286 35.5869 118.61C36.6153 117.297 37.1295 115.546 37.3866 113.883C39.0148 101.978 43.1283 91.0364 49.4699 81.0574C55.383 71.7787 61.9817 63.1127 71.1514 56.8102C75.6933 53.6589 79.9782 49.9825 84.863 47.2689C92.233 43.2423 100.031 40.1786 108.344 38.2528C116.057 36.5021 123.855 35.3641 131.739 35.7143C141.252 36.2395 150.593 38.3403 160.62 41.6667ZM211.524 377.101C213.152 374.912 214.009 372.987 213.581 370.098C212.724 364.583 212.381 358.893 214.095 353.466C216.666 345.501 221.808 339.548 228.749 335.171C229.52 334.734 230.377 333.771 230.377 333.071C230.463 329.657 230.634 326.155 230.12 322.742C229.349 317.577 225.664 314.163 221.808 311.187C219.322 309.261 219.494 306.985 219.751 304.447C220.094 300.77 221.293 297.531 223.179 294.293C225.235 290.704 226.864 286.765 228.749 282.738C230.12 283.788 232.605 283.263 231.063 285.802C229.52 288.34 228.063 290.966 226.607 293.592C224.464 297.619 222.407 301.733 222.75 306.548C222.836 307.598 223.521 308.823 224.207 309.699C225.664 311.449 227.378 312.85 228.835 314.513C232.263 318.54 234.234 323.004 233.634 328.519C233.462 329.744 233.634 331.057 233.634 332.545C238.519 331.232 242.289 332.37 245.289 336.134C245.631 335.347 245.889 334.734 246.06 334.121C246.146 333.508 246.146 332.896 246.146 332.283C246.146 324.842 245.889 317.489 243.575 310.312C241.518 303.834 239.718 297.356 235.433 291.842C234.234 290.354 233.891 288.165 233.205 286.239C233.462 286.064 233.805 285.889 234.062 285.714C234.748 286.327 235.605 286.852 236.119 287.552C240.147 293.592 243.66 299.895 245.717 307.073C247.602 313.725 248.631 320.291 248.631 327.118C248.631 334.209 248.459 341.211 248.117 348.302C247.945 352.241 249.316 355.129 252.487 357.23C256.001 359.594 261.571 359.594 264.485 356.442C268.256 352.416 267.998 347.426 267.227 342.787C265.77 333.946 262.171 325.893 257.715 318.277C256.943 316.964 256.429 315.564 255.829 314.163C256.001 314.076 256.258 313.988 256.429 313.9C260.628 320.291 264.913 326.593 267.484 334.034C269.798 340.774 270.741 347.514 269.541 354.604C268.598 360.031 267.313 365.283 263.885 369.748C260.457 374.387 257.286 379.289 253.344 383.403C250.002 386.992 245.974 389.968 241.775 392.594C236.976 395.571 231.748 397.934 226.607 400.385C223.521 401.873 220.179 402.924 217.008 404.149C217.008 404.324 216.923 404.587 216.923 404.762C218.722 405.375 220.779 406.863 222.407 406.425C229.863 404.499 237.062 401.348 243.403 396.884C247.431 394.083 251.373 391.194 254.887 387.692C259.086 383.491 263.114 378.939 266.627 374.125C270.741 368.435 273.312 361.782 274.083 354.692C274.683 349.09 274.94 343.225 273.997 337.71C272.455 328.956 268.256 321.166 263.542 313.638C257.886 304.709 250.945 297.006 244.175 289.128C241.946 286.502 239.633 283.876 237.576 280.987C236.547 279.587 235.262 277.223 235.776 275.998C236.805 273.634 238.776 271.534 240.747 269.783C243.146 267.682 246.403 266.544 246.917 262.517C247.86 263.305 248.545 264.006 248.888 264.793C252.059 273.897 255.829 282.65 260.714 290.966C265.685 299.545 271.598 307.335 278.539 314.251C285.738 321.516 294.222 327.118 303.649 331.145C307.676 332.896 311.961 333.246 315.903 330.532C319.674 327.906 319.845 323.179 316.075 320.816C310.247 317.139 304.163 313.813 298.078 310.487C292.679 307.51 286.852 305.059 281.624 301.733C275.883 298.057 270.227 293.855 266.799 287.465C266.113 286.239 264.999 285.277 264.142 284.139C263.371 283.001 262.685 281.775 262 280.637C262.257 280.462 262.514 280.287 262.771 280.2C263.371 280.9 263.885 281.6 264.485 282.3C266.713 285.189 268.77 288.165 271.169 290.879C276.825 297.181 284.281 300.77 291.651 304.534C297.05 307.248 302.535 309.874 307.933 312.5C314.189 315.564 319.76 319.503 324.387 324.755C328.587 329.482 331.929 334.821 334.414 340.774C337.842 348.827 338.527 356.968 337.242 365.371C336.814 368.435 335.614 371.323 334.757 374.3C333.557 367.647 332.272 361.432 325.159 358.893C325.501 359.681 326.187 360.206 326.701 360.994C328.244 363.533 330.215 365.984 330.986 368.697C332.957 375.35 331.157 381.74 327.73 387.342C321.902 396.709 313.418 403.011 303.477 406.95C295.079 410.364 286.252 411.94 276.997 411.414C267.998 410.889 259.514 408.963 251.373 405.024C248.888 403.886 246.488 402.573 244.175 401.085C242.118 399.772 240.49 401.523 239.804 402.486C238.604 404.061 240.918 404.149 241.775 404.674C244.689 406.512 247.774 408.088 250.773 409.839C245.203 413.953 244.603 420.431 249.402 424.807C251.545 426.733 254.887 427.171 256.943 425.683C259.514 423.757 260.114 420.956 258.486 417.542C257.372 415.178 254.972 414.128 252.059 415.091C250.516 415.529 249.231 416.667 247.774 417.454C248.374 412.552 252.916 410.977 256.858 412.115C267.484 415.266 278.282 416.491 289.337 415.003C298.421 413.778 306.819 410.802 314.532 405.9C326.101 398.634 334.414 388.568 339.213 375.613C340.927 370.886 341.955 365.984 343.155 361.169C345.64 351.453 349.068 342.262 356.438 335.259C357.638 334.121 359.009 333.333 360.295 332.458C360.466 332.72 360.723 332.896 360.895 333.158C360.123 333.771 359.352 334.209 358.752 334.909C356.952 336.922 354.81 338.76 353.61 341.124C351.125 346.113 348.897 351.278 347.097 356.618C346.412 358.543 346.669 361.082 347.269 363.008C349.068 369.048 354.124 370.098 360.209 368.96C362.266 368.61 364.665 367.209 365.865 365.546C368.436 362.045 369.207 357.668 369.721 353.379C370.321 348.127 370.921 342.875 371.864 337.622C372.978 330.97 376.32 325.893 382.062 322.479C384.033 321.341 386.175 320.553 388.403 319.503C381.719 316.264 373.492 316.439 366.293 320.378C356.952 325.455 351.211 333.683 346.754 343.137C345.383 346.026 344.098 348.914 342.812 351.803C342.127 350.315 342.041 349.177 341.784 347.952C340.584 342.174 338.27 336.835 335.271 331.758C330.643 323.967 324.644 317.402 317.275 312.412C310.847 308.036 303.82 304.359 297.136 300.333C289.851 295.956 282.738 291.141 276.568 285.101C272.112 280.725 267.998 276.085 263.799 271.534C260.457 267.945 258.572 263.568 257.286 259.016C261.571 257.878 265.599 256.653 269.712 255.777C274.083 254.902 278.454 254.289 282.053 258.228C283.852 260.154 288.052 259.629 289.68 257.528C291.48 255.165 293.965 255.164 296.364 255.69C299.107 256.302 301.678 257.791 304.42 258.578C312.475 260.854 318.903 265.844 325.159 271.096C326.53 269.17 327.13 267.244 324.987 265.231C327.73 264.968 330.558 261.467 329.958 259.016C329.872 258.491 328.844 257.878 328.158 257.703C326.016 257.178 323.788 256.915 321.645 256.565C321.131 256.478 320.445 256.215 320.017 256.478C316.075 258.578 312.39 258.403 308.876 255.69C308.448 255.34 307.762 255.252 307.162 255.077C301.849 253.151 296.45 251.138 291.137 249.3C289.509 248.774 287.623 247.812 286.166 248.162C282.567 248.95 278.968 249.125 275.368 250.525C270.055 252.626 264.142 253.064 258.486 254.289C254.801 255.077 251.03 255.69 248.117 252.714C243.832 248.512 241.861 242.91 241.089 237.045C240.661 233.893 240.832 230.83 237.576 228.816C236.119 227.854 235.091 226.015 234.148 224.44C233.377 223.127 233.034 221.551 232.605 220.238C230.634 223.039 228.835 225.84 226.864 228.466C225.235 230.742 223.179 232.756 221.722 235.119C220.094 237.745 219.322 240.634 219.836 244.048C220.951 250.525 223.95 256.127 226.864 261.817C228.063 264.181 229.777 266.369 231.234 268.732C234.748 265.756 236.976 261.905 241.689 261.905C240.918 263.393 240.061 264.793 238.861 265.756C231.92 271.271 226.264 277.836 222.15 285.714C220.522 288.865 219.065 291.929 215.98 294.03C213.923 295.431 212.381 297.444 210.581 299.107C210.324 298.932 209.981 298.757 209.724 298.582C210.495 297.006 211.181 295.256 212.209 293.855C214.095 291.229 217.523 290.266 218.722 286.677C219.751 283.701 221.722 281.162 223.436 278.449C224.207 277.136 224.378 276.348 223.35 274.772C220.608 270.658 217.694 266.544 217.351 261.292C220.179 264.793 222.75 268.382 225.064 272.234C225.75 273.284 226.349 274.247 227.121 273.284C227.892 272.409 229.863 271.796 228.492 269.52C225.15 263.83 221.979 258.053 219.322 252.101C217.865 248.687 217.608 244.748 217.008 240.984C216.837 239.758 217.266 238.445 217.437 237.22C217.266 237.132 217.008 237.045 216.837 236.957C216.494 237.395 215.894 237.833 215.723 238.358C214.952 241.859 211.781 243.085 209.381 244.135C205.439 245.798 203.811 249.125 202.611 252.538C200.297 258.928 196.955 264.706 193.013 270.483C193.699 271.534 194.47 272.847 195.413 274.335C196.27 273.197 197.127 272.409 197.727 271.446C199.869 268.207 201.669 264.706 203.982 261.73C206.296 258.753 209.638 256.653 209.81 252.451C211.61 252.101 212.381 252.626 212.295 254.289C212.038 257.878 209.81 260.154 207.41 262.43C206.211 263.48 204.925 264.618 204.068 265.931C202.783 267.945 201.926 270.221 200.64 272.234C197.641 276.961 197.641 276.961 200.555 281.513C200.64 281.688 200.812 281.775 200.897 281.863C205.011 287.815 207.753 294.293 207.925 301.646C207.925 303.221 207.239 305.234 206.125 306.285C203.64 308.823 200.726 310.837 197.984 313.113C194.556 315.914 191.985 319.328 191.556 323.792C191.299 326.943 191.299 330.357 192.156 333.421C192.585 334.909 195.07 335.784 196.612 337.01C207.325 345.326 210.753 356.092 208.61 369.398C208.182 373.162 208.953 375.875 211.524 377.101ZM61.4676 332.896C61.639 332.72 61.8104 332.545 61.9817 332.283C64.7241 334.996 67.7235 337.447 70.123 340.424C76.4646 348.477 78.5214 358.456 80.9209 368.172C82.3777 374.125 84.0917 379.902 87.4339 384.979C90.8618 390.231 94.6325 395.483 99.0887 399.685C103.374 403.624 108.601 406.688 113.743 409.489C120.942 413.428 128.911 415.178 136.967 415.791C146.737 416.579 156.249 415.266 165.59 412.377C170.046 410.977 173.646 413.34 174.417 417.542C172.789 416.754 171.075 415.441 169.275 415.354C167.561 415.266 165.247 415.966 164.219 417.104C162.505 419.03 162.248 422.094 163.705 424.107C164.733 425.595 167.047 426.646 168.846 426.733C172.274 426.908 175.36 423.232 176.302 418.68C176.816 416.229 175.017 412.64 172.446 411.064C172.103 410.802 171.846 410.364 171.589 410.014C175.531 407.738 179.302 405.637 183.415 403.274C181.273 401.961 180.073 400.122 177.331 401.873C169.618 406.6 161.219 409.751 152.135 411.064C143.48 412.29 134.91 411.852 126.426 409.664C118.371 407.563 111.086 403.799 104.488 398.547C97.6319 393.12 92.6614 386.555 90.9475 377.626C89.8334 372.111 90.9475 367.297 94.204 362.92C94.7182 362.22 95.2324 361.52 95.7465 360.819C96.175 360.294 96.6892 359.769 97.1177 359.244C89.662 361.782 88.2909 367.997 87.691 374.912C86.3198 370.798 85.5486 366.772 84.6916 362.745C83.2347 355.83 84.863 349.265 86.9197 342.699C88.6337 337.185 91.8902 332.545 95.3181 327.906C100.46 320.991 107.144 316.176 114.343 312.15C123.941 306.81 134.053 302.433 143.651 296.919C147.422 294.73 150.422 291.054 153.421 287.815C155.649 285.452 157.449 282.65 159.42 280.024C159.42 281.075 159.248 282.038 158.734 282.738C157.106 285.277 155.392 287.728 153.592 290.178C152.393 291.842 151.107 293.592 149.65 294.905C143.137 300.77 135.596 305.147 127.797 309.086C120.77 312.675 113.657 316.264 106.716 320.115C102.26 322.566 102.345 327.643 106.63 330.62C109.63 332.721 112.715 332.808 116.057 331.933C122.57 330.094 128.397 326.593 133.796 322.654C140.909 317.402 147.251 311.099 152.735 304.097C161.477 292.98 167.732 280.55 172.617 267.332C173.046 266.281 172.96 264.356 172.274 263.655C170.303 261.467 164.904 262.342 163.276 264.881C158.391 273.022 151.878 279.849 145.023 286.064C137.91 292.629 129.768 297.882 121.284 302.608C117.257 304.797 113.229 306.985 109.287 309.524C100.974 314.863 93.6898 321.341 88.2052 329.832C84.5202 335.609 81.6922 341.649 80.4067 348.477C80.1496 349.877 79.7211 351.19 79.464 352.328C77.5787 348.302 75.6933 344.275 73.808 340.336C69.0946 330.532 62.5816 322.917 52.2122 318.977C46.042 316.614 40.1289 317.227 33.9587 319.153C34.2158 319.678 34.3015 319.853 34.4729 320.028C34.6443 320.203 34.9013 320.378 35.0727 320.466C44.1567 322.829 48.6129 329.657 50.584 338.323C51.8694 344.1 51.8694 350.14 52.8978 355.917C53.4977 359.156 54.3547 362.657 56.0686 365.371C58.9823 369.923 64.0385 370.01 68.6661 369.223C72.7796 368.522 76.5503 363.183 75.6933 359.594C74.0651 352.591 71.7513 345.851 67.4664 339.986C65.7524 337.622 63.5243 335.347 61.4676 332.896ZM188.985 215.336C189.328 212.973 189.757 209.996 190.099 207.02C190.271 205.707 190.785 204.307 190.357 203.169C188.471 196.954 187.957 190.739 188.9 184.349C189.157 182.773 189.585 181.285 189.928 179.797C190.271 179.797 190.699 179.797 191.042 179.797C191.214 180.847 191.813 181.898 191.642 182.948C190.614 189.601 190.699 196.166 193.099 202.468C193.956 204.569 193.784 206.583 192.927 208.683C190.699 213.848 191.556 218.925 194.727 223.214C197.298 226.628 200.726 229.429 203.725 232.493C205.525 234.331 207.839 235.994 208.867 238.183C209.81 240.284 210.581 240.108 211.867 239.321C212.809 238.795 213.495 237.833 214.266 237.045C213.923 237.045 213.666 237.132 213.323 237.132C211.867 233.368 209.81 229.692 209.21 225.753C208.01 218.575 207.925 211.222 209.638 204.044C210.324 201.243 210.153 197.829 213.238 195.991C214.18 195.466 215.123 194.765 215.98 194.153C218.465 192.227 219.065 189.951 217.78 186.8C215.037 188.813 212.381 190.826 209.638 192.84C210.667 190.038 211.61 187.325 214.266 185.749C215.466 185.049 217.78 184.611 217.266 182.248C215.98 175.858 214.523 169.468 210.924 163.865C211.61 164.041 212.209 164.303 212.552 164.828C215.552 168.855 217.437 173.407 218.722 178.309C220.608 185.312 221.722 192.314 221.465 199.492C221.379 201.068 221.036 202.643 220.951 204.132C220.779 206.845 220.436 207.633 217.608 209.296C217.694 204.744 220.094 200.28 217.437 195.641C215.295 197.742 213.238 199.842 212.209 202.381C211.267 204.744 211.095 207.458 211.095 210.084C211.095 218.662 210.153 227.416 215.894 235.207C218.722 232.23 221.55 229.342 224.464 226.453C230.034 220.851 231.32 214.373 228.663 206.933C228.235 205.707 228.492 203.957 228.835 202.643C230.292 197.566 231.92 192.577 230.292 187.325C229.435 184.524 227.892 181.985 226.692 179.447C232.006 182.686 234.662 190.914 232.777 198.267C231.92 201.506 230.292 204.569 232.263 208.158C233.034 209.559 232.434 211.66 232.52 213.41C232.52 214.023 232.862 214.636 233.12 215.249C234.234 213.936 235.005 212.535 236.205 211.66C237.747 210.609 239.547 209.734 241.347 209.121C243.489 208.421 242.546 206.67 242.975 205.357C245.032 199.142 247.088 192.927 249.145 186.712C249.659 185.224 250.173 183.911 248.545 182.773C244.603 180.059 240.575 177.433 236.719 174.632C235.433 173.757 234.405 172.531 233.377 171.394C230.292 168.155 227.206 164.828 224.036 161.502C222.322 159.664 220.094 158.088 218.894 155.9C217.094 152.486 212.467 151.348 209.724 153.711C205.611 157.213 201.754 160.977 197.812 164.653C195.927 166.404 194.042 168.242 192.499 169.73C185.9 159.576 177.159 151.698 167.904 143.995C166.618 146.271 166.19 148.109 168.247 150.123C173.988 155.725 179.644 161.415 185.3 167.017C187.443 169.118 187.786 172.794 185.9 174.195C181.615 177.258 177.331 180.147 173.046 183.211C172.531 183.561 172.017 184.524 172.103 184.961C172.874 187.587 173.817 190.214 174.674 192.752C175.874 196.516 177.073 200.28 178.273 204.044C179.044 206.408 178.445 209.821 182.558 209.471C182.815 209.471 183.158 209.821 183.415 210.084C185.558 212.097 187.443 213.936 188.985 215.336ZM373.064 273.022C378.891 275.91 384.547 277.223 390.717 274.597C397.402 271.796 401.772 266.807 405.286 260.592C409.485 253.064 411.37 245.01 411.713 236.432C411.97 228.466 410.77 220.763 407.343 213.585C405.286 209.209 402.629 205.094 398.43 201.943C398.173 202.293 397.916 202.556 397.744 202.906C395.002 209.646 389.775 212.885 382.833 212.71C375.72 212.622 370.321 208.508 365.265 203.869C364.922 203.606 365.094 202.118 365.436 201.681C368.522 198.529 371.864 195.641 376.063 194.065C377.691 193.452 379.319 192.84 380.948 192.139C378.805 186.975 377.091 181.985 380.862 177.083C384.633 172.356 389.946 174.02 395.688 174.195C390.889 168.592 386.689 163.69 382.49 158.876C378.891 167.104 375.892 175.158 371.949 182.686C368.007 190.214 363.208 197.216 358.666 204.744C359.695 205.62 360.98 206.67 362.18 207.721C367.408 212.185 372.721 216.562 379.748 217.787C384.29 218.575 388.66 218.575 392.088 214.811C393.717 213.06 395.345 211.222 397.145 209.384C405.8 217.875 409.056 227.766 405.714 239.496C403.658 246.849 396.802 254.027 388.061 253.151C384.89 252.889 381.805 252.013 378.377 251.4C378.291 251.576 377.777 252.188 377.777 252.626C378.12 256.915 376.063 260.154 373.406 263.13C369.464 267.507 363.98 268.032 358.666 268.557C354.81 268.907 350.954 268.82 347.097 269.17C345.469 269.345 343.841 270.133 341.87 270.746C343.755 272.409 345.298 273.547 346.497 274.947C349.582 278.536 349.84 285.014 346.754 288.953C345.983 289.916 345.555 291.667 345.726 292.98C346.069 296.131 347.097 299.195 347.44 302.346C347.868 306.022 349.068 306.985 352.668 306.11C353.182 306.022 353.696 305.847 354.124 305.847C362.866 305.322 370.921 302.608 378.463 298.232C381.291 296.569 383.776 294.468 386.432 292.629C376.406 292.104 371.35 286.327 373.064 273.022ZM27.1886 173.844C27.36 174.107 27.4457 174.37 27.6171 174.632C32.6732 173.669 37.9008 172.882 41.5857 177.521C45.5278 182.51 43.214 187.5 40.9002 192.402C47.9274 194.153 53.2406 197.917 58.2111 203.694C53.8405 206.407 49.8984 209.296 45.6135 211.397C40.8145 213.76 35.7583 213.148 31.045 210.784C27.36 208.858 25.3889 205.357 23.4179 201.418C21.7039 203.606 20.0757 205.532 18.6188 207.545C14.0769 213.41 11.5059 220.15 10.9918 227.416C10.5633 233.981 10.2205 240.721 11.763 247.374C13.9055 257.003 18.1903 265.231 25.7317 271.358C30.1023 274.86 34.987 277.311 40.9002 275.648C43.6425 274.86 46.4705 274.247 49.2128 273.547C49.5556 278.274 49.8127 283.263 46.7276 287.465C44.071 291.054 40.386 292.629 35.7583 292.367C37.0438 293.767 38.2435 294.905 39.7004 295.693C44.5852 298.319 49.2985 301.295 54.5261 303.134C59.6679 304.884 65.3239 305.41 70.7229 306.46C72.951 306.898 74.0651 305.847 74.4079 303.659C74.9221 300.42 75.2649 297.094 76.1218 293.942C76.636 292.017 76.3789 290.616 75.3506 289.128C72.4368 284.751 72.1797 278.274 76.8931 273.985C77.9215 273.022 79.0355 272.059 80.7495 270.396C76.4646 269.783 72.951 269.083 69.3517 268.732C66.0095 268.382 62.6673 268.557 59.3251 268.12C54.1833 267.419 49.2128 265.756 46.5562 260.592C45.0993 257.703 44.4995 254.464 43.4711 251.138C42.9569 251.313 42.0142 251.576 41.243 251.926C37.3009 253.589 33.1017 254.202 29.1596 252.889C21.961 250.613 17.7619 245.01 15.8765 237.745C13.1342 227.328 17.6762 216.036 25.2175 209.646C25.646 210.259 26.0745 210.872 26.5887 211.397C28.1312 212.973 29.5881 214.723 31.3021 216.036C35.7583 219.363 40.7288 218.75 45.5278 217.174C51.9551 215.073 56.9256 210.434 62.0674 206.232C63.7814 204.832 63.5243 203.957 62.4959 202.468C59.925 198.879 57.1827 195.466 55.1259 191.614C51.2696 184.436 47.756 177.083 44.3281 169.73C42.6998 166.316 41.5857 162.728 40.0432 158.613C35.5869 163.865 31.3878 168.855 27.1886 173.844ZM396.887 196.516C398.259 197.654 399.458 198.442 400.401 199.492C406.657 205.795 411.113 213.235 412.999 222.076C415.055 231.88 415.055 241.684 412.227 251.313C409.913 259.366 406.057 266.632 399.887 272.234C395.602 276.085 390.632 279.062 384.547 278.711C381.719 278.536 378.805 278.274 375.977 278.011C374.863 286.765 380.948 290.178 388.146 289.216C390.032 288.953 391.917 288.603 394.231 288.165C388.318 293.767 388.318 301.558 392.003 304.972C395.088 307.861 399.715 309.174 404 304.447C400.915 300.157 400.744 295.518 402.201 290.354C404 284.051 407.257 278.449 409.913 272.496C412.399 266.894 414.113 260.854 415.998 254.989C418.312 247.724 419.169 240.196 418.997 232.58C418.826 225.665 418.997 218.575 417.798 211.835C416.341 204.044 413.856 196.341 411.113 188.813C407.343 178.396 401.258 169.293 394.059 161.152C388.918 155.375 383.09 150.035 377.006 145.308C371.692 141.194 365.608 137.868 359.609 134.716C352.925 131.215 345.812 128.852 338.356 127.451C333.471 126.488 328.501 125.788 323.702 124.912C323.359 126.05 322.845 126.926 322.931 127.714C323.102 128.501 323.788 129.552 324.473 129.727C326.273 130.165 328.158 130.165 330.043 130.34C337.499 131.127 344.869 132.703 351.382 136.73C357.124 140.319 360.552 145.308 360.209 152.398C360.038 154.937 359.181 157.475 358.581 160.101C361.237 158.701 363.723 157.213 364.58 154.237C366.122 148.985 363.551 144.783 360.466 140.406C373.578 144.17 403.743 174.895 404.6 185.224C400.487 180.059 395.773 176.821 389.089 176.908C384.804 176.996 381.119 179.622 381.719 183.911C382.062 186.712 383.69 189.338 384.976 191.877C385.747 193.452 387.032 194.678 388.489 196.691C380.005 194.24 373.921 197.391 368.693 202.819C372.892 207.545 379.662 210.609 386.604 209.471C393.288 208.421 394.488 202.031 396.887 196.516ZM25.2175 196.429C27.5314 202.731 29.5024 208.858 37.0438 209.646C43.6425 210.347 48.87 207.545 53.7548 203.256C48.5272 197.041 42.0999 194.853 34.0444 196.341C37.558 192.314 41.4144 187.15 40.5574 182.51C40.386 181.372 39.7004 180.059 38.8434 179.359C35.4155 176.558 28.9882 176.295 25.2175 178.922C22.6466 180.672 20.2471 182.773 17.5048 184.961C27.8742 165.003 43.0426 150.473 62.4102 140.056C58.2111 144.258 56.6685 149.335 58.2111 155.112C59.068 158.176 61.1248 159.576 64.0385 160.014C63.7814 159.226 63.6957 158.526 63.3529 157.826C60.6963 151.085 62.0674 145.221 66.9522 140.144C72.5225 134.366 80.0639 132.703 87.4339 131.215C90.8618 130.515 94.3754 130.427 97.889 130.077C99.9457 129.902 99.5172 128.239 99.3458 127.101C99.2601 126.488 98.2318 125.35 97.8033 125.438C89.9191 127.013 81.9493 128.326 74.2365 130.602C62.4959 133.929 52.1265 140.056 42.4427 147.584C34.987 153.449 28.3883 160.189 22.9037 167.98C15.8765 177.871 10.3919 188.638 7.04967 200.543C4.73583 208.946 3.10758 217.524 3.10758 226.278C3.10758 232.668 3.19328 239.146 4.22165 245.448C5.33572 252.276 7.04967 259.016 9.3635 265.494C12.1915 273.284 16.0479 280.55 19.133 288.253C21.1897 293.242 22.2181 298.494 18.9616 303.659C18.6188 304.184 18.9616 305.672 19.4758 306.197C22.818 309.611 31.045 307.16 32.159 302.433C33.3588 297.269 32.159 292.717 28.3026 288.69C30.5308 289.041 32.5018 289.391 34.5586 289.653C37.4723 290.091 43.3854 289.216 44.8423 285.627C45.5278 283.876 46.042 282.038 46.5562 280.2C47.1561 278.186 46.4705 278.099 44.5852 278.274C41.0716 278.711 37.3009 279.324 33.873 278.711C25.7317 277.223 20.0757 271.621 15.7908 264.968C10.4776 256.828 8.07804 247.461 7.82094 237.657C7.56385 229.167 8.76362 221.026 12.4486 213.235C15.448 206.495 19.3901 201.068 25.2175 196.429ZM299.107 95.2381C299.964 95.063 300.821 94.8004 301.763 94.8004C308.362 94.4503 314.532 95.7633 320.445 99.0021C328.158 103.204 334.071 109.069 337.242 117.384C338.013 119.398 338.099 121.586 338.956 123.599C339.299 124.475 340.67 124.912 341.527 125.525C341.784 124.912 342.384 124.3 342.298 123.774C341.698 120.186 341.098 116.597 340.327 113.095C338.185 103.116 333.386 94.7129 325.416 88.6729C321.731 85.8718 317.103 83.8585 312.647 82.7206C306.22 81.0574 299.621 81.9327 293.194 83.1582C284.881 84.8214 276.654 86.8347 268.341 88.7605C264.399 89.6358 260.543 89.5483 256.344 88.1477C257.543 87.3599 258.486 86.9222 259.257 86.3095C263.542 83.0707 264.999 80.3571 263.285 75.8928C261.485 71.341 256.772 68.8025 253.001 70.5532C249.059 72.3914 247.774 76.0679 247.86 79.8319C247.945 82.8956 249.488 86.1344 252.659 87.2724C257.715 89.1982 262.857 91.1239 268.17 91.9117C277.854 93.3998 285.995 97.689 293.022 104.429C297.478 108.718 302.877 110.031 308.79 109.594C311.361 109.419 313.932 109.156 316.589 108.981C316.675 109.244 316.675 109.506 316.76 109.769C316.075 110.119 315.303 110.469 314.618 110.732C311.104 112.22 308.448 115.896 308.79 119.66C309.219 124.562 309.905 129.464 310.933 134.279C312.047 139.618 309.819 143.82 307.419 148.459C307.162 147.496 306.819 146.796 306.734 146.183C306.648 145.571 306.991 144.87 306.991 144.258C306.991 142.419 304.848 140.144 303.134 140.056C300.906 139.881 299.192 140.756 298.335 142.77C297.564 144.608 299.021 147.321 300.906 148.547C305.448 151.611 314.104 147.847 316.589 142.945C319.331 137.605 319.76 131.915 320.274 126.138C320.617 122.024 320.959 117.472 324.644 114.583C326.444 113.183 328.758 112.57 331.072 111.52C323.102 100.928 311.876 96.9888 299.107 95.2381ZM165.419 87.9727C165.247 88.0602 165.076 88.2353 164.819 88.3228C158.82 90.3361 152.992 88.5854 147.165 87.4475C139.281 85.8718 131.397 83.8585 123.513 82.458C110.144 80.182 98.8317 84.1211 90.1762 94.8879C86.5769 99.3522 83.8346 104.517 82.5491 110.294C81.6922 114.321 80.6638 118.26 79.8068 122.286C79.5497 123.512 79.3783 125.175 80.9209 125.35C82.3777 125.525 82.8919 124.3 83.2347 122.637C83.9203 119.573 84.7773 116.334 86.3198 113.708C93.8612 101.19 104.83 94.4502 119.485 94.7129C120.342 94.7129 121.284 94.9755 122.141 95.1505C109.887 97.1638 98.8317 100.928 91.0332 111.782C97.8033 113.27 99.6886 114.758 101.06 121.323C102.088 126.05 102.174 131.04 102.945 135.767C104.316 143.908 109.801 150.21 118.971 149.335C121.541 149.072 123.855 146.271 123.77 143.47C123.684 140.756 122.656 139.793 119.399 139.618C117.428 139.531 115.543 141.632 115.457 143.995C115.371 145.133 115.286 146.271 115.2 147.496C113.829 146.183 112.886 144.958 112.543 143.645C111.858 141.019 110.829 138.218 111.001 135.592C111.343 131.478 112.543 127.451 113.4 123.424C114.6 117.472 112.629 113.27 107.23 110.382C106.373 109.944 105.516 109.506 104.659 109.156C107.658 108.894 110.572 108.981 113.486 109.419C117.771 109.944 121.884 109.681 125.484 107.143C129.768 104.167 133.711 100.665 137.995 97.689C142.28 94.6253 147.336 93.3123 152.393 92.1743C156.677 91.2115 161.134 90.5987 165.333 89.3732C169.532 88.1477 173.046 85.7843 174.16 80.9699C175.017 77.4685 173.046 72.5665 169.703 70.8158C166.447 69.0651 162.762 70.028 160.277 73.3543C157.877 76.418 157.449 81.5826 159.591 83.5084C161.305 85.084 163.362 86.397 165.419 87.9727ZM187.271 280.112C184.701 282.826 182.387 285.539 179.816 288.078C169.961 297.969 160.962 308.473 154.535 321.078C149.907 330.094 146.737 339.373 147.594 349.877C148.108 356.005 149.393 361.782 151.621 367.209C155.135 375.438 160.534 382.44 167.218 388.393C173.303 393.82 179.816 398.372 187.186 401.873C193.185 404.674 199.269 406.688 205.868 407.475C213.066 408.351 220.179 414.653 222.15 421.744C222.922 424.545 221.122 428.484 218.637 429.797C213.838 432.335 208.867 431.985 203.982 430.059C201.412 429.097 199.012 424.982 200.212 421.569C201.669 417.367 204.154 414.128 207.582 411.502C204.754 409.576 202.183 409.576 200.726 411.677C198.669 414.741 196.355 417.629 196.013 421.831C195.584 428.046 198.069 432.16 203.125 434.524C207.153 436.362 211.352 436.012 215.295 435.574C221.293 434.874 226.521 430.672 226.349 423.144C226.092 414.478 218.38 407.038 209.21 404.762C205.439 403.799 201.497 403.274 197.898 401.873C183.501 396.271 170.989 387.868 161.391 375.35C155.221 367.297 151.964 358.193 151.878 347.864C151.878 342.787 153.25 338.148 154.878 333.421C157.706 325.63 162.333 318.978 166.704 312.15C166.79 312.763 166.875 313.288 166.618 313.725C164.133 318.627 161.305 323.354 159.248 328.431C156.506 335.259 153.592 342.087 154.792 349.965C155.735 356.092 159.077 359.419 165.247 358.981C170.132 358.631 174.503 353.466 174.16 349.09C173.731 343.75 173.303 338.41 173.131 333.071C173.046 329.657 173.731 326.243 173.56 322.829C172.874 313.288 176.902 305.059 180.33 296.831C182.472 291.754 185.986 287.377 188.985 282.563C188.728 282.038 188.128 281.25 187.271 280.112ZM165.676 116.246C159.248 125.7 154.278 135.767 154.621 147.672C154.964 159.401 159.505 169.555 166.961 178.484C166.961 176.996 166.79 175.508 166.447 174.107C164.047 163.778 163.362 153.449 165.076 142.945C166.018 137.167 167.99 131.74 173.131 128.326C176.388 126.138 179.987 124.475 183.929 127.188C184.101 127.276 184.529 127.101 185.643 126.838C184.101 125.175 183.072 123.249 181.615 122.812C177.759 121.499 174.331 123.599 170.646 126.05C171.075 124.912 171.16 124.475 171.417 124.037C174.503 118.96 177.502 113.795 180.844 108.981C185.386 102.503 190.271 96.2885 194.813 89.8109C197.469 86.0469 197.384 85.5217 194.47 81.7577C191.899 84.2087 189.414 86.8347 186.586 89.0231C177.93 95.8508 169.104 102.503 160.362 109.244C152.564 115.371 145.194 121.936 140.481 130.865C137.396 136.642 136.453 142.945 137.824 149.335C138.852 153.974 140.309 158.526 142.195 162.815C143.309 165.529 144.68 168.417 148.108 169.293C151.107 170.08 154.021 171.394 156.935 172.444C157.62 172.707 158.306 172.882 159.591 173.232C147.679 152.223 149.993 133.403 165.676 116.246ZM255.23 178.484C271.084 157.913 271.855 137.08 256.429 115.984C258.315 117.735 259.771 119.748 261.228 121.586C266.284 127.889 268.855 135.329 269.97 143.12C271.084 151.26 269.712 159.314 265.685 166.667C264.656 168.592 264.056 170.693 263.285 172.707C267.313 171.394 271.084 170.343 274.683 169.03C275.797 168.592 277.168 167.892 277.768 166.842C279.482 163.778 281.196 160.627 282.396 157.3C284.624 151.523 285.481 145.308 284.538 139.181C283.595 133.141 280.682 127.714 276.654 123.074C270.055 115.459 262.342 109.244 254.373 103.204C249.059 99.2647 243.832 95.1505 238.69 91.0364C235.005 88.0602 231.406 84.9965 227.806 82.0203C225.407 84.3837 224.807 86.397 225.835 87.7976C228.92 91.9117 232.091 96.0259 235.091 100.228C238.947 105.48 242.803 110.819 246.488 116.246C248.374 119.048 249.831 122.111 251.545 125.087C248.717 124.125 246.231 122.899 243.575 122.549C240.232 122.111 238.433 123.687 237.49 127.101C237.833 127.101 238.261 127.276 238.519 127.101C241.518 125.175 244.603 125.263 247.345 127.276C249.831 129.114 252.23 131.302 254.03 133.841C256.772 137.78 257.286 142.594 257.8 147.409C258.743 155.812 257.886 163.953 256.258 172.181C255.744 174.195 255.487 176.295 255.23 178.484ZM138.938 254.027C140.138 252.626 141.252 251.488 142.28 250.087C146.908 243.61 153.592 240.021 160.62 237.132C165.504 235.119 170.389 233.368 175.274 231.443C175.788 231.267 176.388 231.005 177.245 230.655C175.702 229.779 174.417 229.429 173.56 228.554C171.76 226.803 169.961 225.753 167.304 225.928C165.504 226.103 163.619 225.315 161.905 224.615C157.277 222.864 152.735 220.501 148.022 219.363C143.994 218.4 140.138 219.625 137.138 223.302C133.882 227.328 133.539 232.143 132.682 236.87C132.339 238.62 131.225 240.546 129.94 241.684C129.426 242.209 127.369 241.071 126.083 240.634C125.569 240.459 125.141 239.933 124.541 239.671C118.199 236.782 111.858 233.981 104.745 230.83C103.974 231.53 102.688 232.58 101.06 233.981C105.516 236.257 108.944 238.008 112.543 239.846C111.172 240.809 109.972 241.684 108.773 242.472C108.944 242.297 109.115 242.034 109.287 241.859C108.43 241.334 107.487 240.809 106.63 240.371C104.316 238.971 102.088 237.307 99.6029 236.432C98.6603 236.082 97.1177 237.833 95.7465 238.445C86.7483 242.559 78.0929 237.482 76.5503 228.029C76.2075 225.578 77.1502 222.952 77.4073 220.413C77.493 219.975 77.2359 219.363 76.9788 219.013C75.3506 217.174 73.7223 215.424 71.9227 213.498C71.4085 214.286 71.1514 214.723 70.8086 215.073C70.4658 215.686 70.0373 216.211 69.6945 216.824C66.0095 223.477 65.0669 230.392 69.3517 236.957C71.837 240.809 75.0078 244.31 78.35 247.374C81.6065 250.35 85.2058 253.064 89.1478 254.989C91.5474 256.215 93.6041 257.353 95.4038 259.366C96.0036 260.066 97.3748 260.854 97.9747 260.592C101.231 259.016 104.402 257.09 107.401 255.427C106.287 253.239 105.602 251.663 104.659 250.263C103.716 248.95 102.517 247.636 101.145 246.674C99.7743 245.711 100.117 245.098 101.06 244.223C105.859 246.061 106.973 247.024 108.173 250.788C109.372 254.464 111.001 254.377 114.6 252.188C114.257 251.663 113.829 251.225 113.572 250.7C111.772 247.461 113.057 244.748 116.571 243.61C119.999 242.559 122.913 243.61 125.912 245.361C124.798 245.886 123.684 246.148 122.484 246.236C120.513 246.411 118.542 246.499 116.657 246.849C116.228 246.936 115.714 247.812 115.628 248.337C115.628 248.687 116.314 249.212 116.828 249.475C119.742 250.613 122.484 250.087 125.226 248.862C130.625 246.411 134.653 247.636 137.91 252.538C138.252 253.151 138.681 253.676 138.938 254.027ZM214.266 137.08C213.066 137.605 211.952 138.393 210.753 138.568C206.125 139.356 201.583 142.332 196.698 139.881C194.042 138.568 191.385 137.167 188.9 135.592C187.443 134.629 186.157 133.316 185.043 131.915C182.901 129.202 179.987 128.064 176.988 129.289C172.617 131.127 170.218 134.891 168.675 139.181C168.418 139.881 169.189 141.457 169.961 142.069C174.503 146.271 179.216 150.21 183.672 154.499C186.757 157.388 189.5 160.714 192.328 163.953C193.356 165.179 194.213 164.916 195.07 164.041C199.012 160.277 202.783 156.425 206.81 152.836C211.181 148.897 217.008 149.247 220.351 153.186C223.007 156.337 226.007 159.139 229.006 162.027C229.606 162.64 230.034 162.728 230.977 161.94C238.433 155.287 244.603 147.234 253.087 141.807C253.516 141.544 253.773 140.319 253.601 139.706C252.487 135.417 250.002 132.265 246.317 129.989C243.489 128.239 240.575 128.589 238.604 130.69C237.919 131.478 237.576 132.528 236.89 133.228C235.691 134.541 234.062 135.592 232.52 134.104C228.835 130.427 224.636 132.265 220.608 132.616C217.694 132.878 214.78 134.104 211.867 134.191C208.524 134.279 205.097 133.316 201.669 133.141C199.183 132.966 196.612 133.141 194.47 131.478C192.756 130.165 191.214 128.676 189.5 127.363C189.157 127.101 188.043 127.276 188.043 127.363C187.786 128.939 186.929 130.777 188.643 131.915C191.728 133.929 194.899 135.767 198.155 137.43C199.183 137.955 200.726 138.043 201.84 137.693C205.782 136.467 209.724 135.329 214.266 137.08ZM278.454 120.536C279.139 119.573 279.482 119.135 279.91 118.697C282.996 115.109 286.081 111.52 289.251 107.931C290.28 106.793 290.023 106.005 288.909 104.954C283.681 99.7024 277.425 96.7262 270.227 95.2381C264.056 94.0126 257.8 93.2248 251.973 90.161C244.689 86.3095 243.318 77.4685 247.431 71.6036C250.002 67.9272 253.773 66.4391 257.972 67.2269C262.257 68.1022 264.999 71.341 266.285 75.2801C267.399 78.7815 267.227 82.5455 264.313 85.7843C264.999 86.0469 265.428 86.3095 265.77 86.222C269.198 85.6092 272.626 84.9965 275.968 84.2087C281.282 82.9832 286.509 81.4951 291.822 80.4447C294.222 80.007 294.222 79.3067 293.451 77.3809C290.88 71.0784 285.909 66.8767 280.51 63.3753C275.54 60.2241 270.227 57.7731 265.17 54.6218C262.857 53.2213 260.886 52.2584 258.486 53.7465C254.458 56.1975 250.259 58.5609 246.403 61.2745C239.718 66.0014 233.891 71.6912 229.349 78.869C244.603 94.4503 263.971 104.342 278.454 120.536ZM131.739 105.48C134.568 111.169 138.253 115.371 142.366 119.223C142.794 119.66 144.508 119.398 145.194 118.873C147.508 116.947 149.565 114.583 151.878 112.745C159.248 106.705 166.79 100.84 174.245 94.8879C180.501 89.8109 186.672 84.7339 193.013 79.3942C190.785 76.418 189.071 73.7045 186.929 71.4285C179.901 63.7255 171.675 57.598 162.162 53.6589C161.134 53.2213 159.505 53.3963 158.477 53.9216C152.307 57.423 146.051 60.9244 140.052 64.7759C134.396 68.3648 129.94 73.0042 127.797 80.0945C137.738 82.3704 147.508 84.5588 157.277 86.8347C157.363 86.5721 157.534 86.3095 157.62 86.0469C153.764 80.8823 154.535 75.9804 158.134 71.2535C161.648 66.7017 168.247 65.7388 172.874 69.8529C176.474 73.0917 177.331 77.2059 176.645 81.7577C176.131 85.4341 173.903 88.1477 170.646 90.0735C165.676 93.0497 160.02 93.4874 154.621 94.8879C150.507 95.9383 146.394 96.9012 142.537 98.6519C138.938 100.315 135.596 103.029 131.739 105.48ZM131.911 258.316C134.139 259.104 133.968 260.417 133.282 261.905C132.596 263.568 131.739 265.231 131.14 266.894C129.768 270.658 128.826 274.685 127.026 278.274C122.313 287.377 115.543 294.643 106.887 299.982C100.289 304.097 93.2613 306.898 85.5486 307.861C83.4918 308.123 83.8346 309.611 83.7489 311.012C83.6632 312.675 84.863 312.938 86.0627 312.675C89.0621 312.062 92.0616 311.449 94.9753 310.399C102.859 307.51 110.144 303.746 116.742 298.144C123.341 292.542 128.397 285.889 131.739 277.924C133.539 273.634 134.91 269.083 136.367 264.618C136.967 262.868 137.653 261.029 137.91 259.191C138.167 256.915 133.539 251.751 131.225 250.963C128.14 249.912 125.826 251.576 123.255 252.626C117.257 254.989 111.086 257.09 105.43 260.154C101.917 262.08 98.8317 263.655 94.8039 263.218C94.6325 263.218 94.5468 263.393 94.0326 263.568C94.9753 266.194 95.9179 268.82 96.7749 271.183C101.06 268.295 104.916 264.968 109.372 262.693C115.114 259.716 121.199 257.615 127.198 255.252C128.312 254.814 129.683 255.077 130.968 254.989C131.054 255.34 131.14 255.777 131.225 256.127C127.969 257.615 124.798 259.541 121.37 260.592C114.6 262.693 108.43 265.844 102.945 270.483C100.888 272.234 98.746 274.335 97.5462 276.786C96.6035 278.711 96.9463 281.337 96.7749 283.701C96.4321 288.515 92.49 293.067 87.7767 294.118C87.1768 294.293 86.2341 294.73 86.1484 295.168C85.2915 298.407 84.6916 301.733 83.9203 305.322C90.8618 304.447 96.7749 302.521 102.174 299.282C106.544 296.656 110.915 293.592 114.514 289.916C118.285 286.152 121.713 281.775 124.284 277.048C127.369 271.183 129.34 264.706 131.911 258.316ZM342.47 188.2C342.47 187.938 342.47 187.675 342.47 187.412C341.698 187.325 341.013 187.15 340.241 187.062C333.728 186.362 328.501 178.922 331.415 172.094C333.728 166.492 344.098 162.64 349.84 168.33C354.981 173.407 356.353 179.534 354.639 186.012C353.61 190.214 350.868 194.065 348.725 198.267C349.24 198.092 350.268 198.179 350.611 197.654C353.525 193.627 356.524 189.688 359.095 185.399C364.837 176.033 369.636 166.229 372.207 155.375C372.635 153.711 374.263 152.048 371.949 150.648C370.407 149.685 368.95 148.722 367.065 147.496C368.35 154.674 366.379 158.788 362.094 161.327C358.067 163.603 354.639 164.041 353.525 162.815C356.781 158.964 357.638 154.237 357.038 149.422C356.438 144.345 353.525 140.669 348.983 138.393C347.526 137.605 346.84 138.043 346.155 139.356C343.069 145.396 339.899 151.436 336.814 157.563C331.243 168.33 323.273 176.471 312.218 181.197C311.618 181.46 310.933 182.948 311.104 183.648C312.304 189.163 313.675 194.59 315.132 200.368C324.13 196.516 333.814 193.627 342.47 188.2ZM55.2973 148.022C55.0402 147.934 54.7832 147.759 54.5261 147.672C52.8121 148.897 51.0982 150.123 49.5556 151.436C49.2985 151.698 49.2128 152.486 49.2985 152.924C51.0125 161.327 54.269 169.118 58.1254 176.558C61.3819 182.948 65.4096 188.988 69.4374 194.94C70.3801 196.341 71.2371 198.879 74.3222 198.267C73.808 197.391 73.6366 196.779 73.2081 196.341C68.7518 191.351 66.5237 185.574 67.295 178.834C68.3234 169.993 75.2649 162.64 84.863 166.492C88.8051 168.067 91.1189 170.956 91.6331 175.158C92.1473 179.447 90.4333 182.948 86.834 185.136C84.7773 186.362 82.3777 186.975 79.8925 187.938C88.3766 193.89 98.4032 196.779 108.601 200.63C108.258 199.492 107.916 199.055 108.001 198.704C108.944 193.978 109.887 189.251 111.086 184.611C111.429 183.123 111.686 181.985 110.401 181.197C107.23 179.272 103.888 177.521 100.803 175.508C93.9469 170.956 89.2335 164.566 85.4628 157.3C82.3777 151.26 79.2069 145.308 76.1218 139.268C75.2649 137.693 74.4936 137.693 72.8653 138.568C64.5527 143.207 63.3529 152.486 67.2093 160.189C67.7235 161.239 68.2377 162.202 69.0089 163.603C64.5527 163.428 60.8677 162.29 57.954 159.401C54.6118 156.25 53.8405 152.398 55.2973 148.022ZM77.1502 121.499C77.8358 118.347 78.4357 115.546 79.0355 112.658C81.3494 102.153 86.2341 93.3123 94.6325 86.6596C100.289 82.1954 106.716 79.6568 113.914 79.3942C115.371 79.3067 117.171 79.7444 118.199 79.0441C119.228 78.3438 119.399 76.5056 119.999 75.105C120.17 74.7549 120.256 74.4923 120.427 74.1421C122.398 69.7654 124.798 65.5637 128.569 62.5875C132.168 59.7864 135.767 56.9853 139.538 54.3592C142.28 52.4335 145.28 50.8578 148.622 48.8445C147.508 48.4068 146.994 47.9692 146.394 47.9692C142.709 47.8816 139.109 47.8816 135.424 47.9692C127.198 48.1442 120.513 52.2584 114.257 57.0728C105.259 64.0756 98.8317 73.6169 92.0616 82.8081C88.6337 87.4475 85.2915 92.0868 81.6922 96.5511C78.4357 100.578 73.7223 102.328 69.0089 100.928C63.6957 99.3522 59.6679 95.7633 58.8109 89.5483C58.6395 88.5854 58.2111 87.7101 57.954 86.8347C57.6112 86.7472 57.3541 86.7472 57.0113 86.6596C54.0976 94.3627 51.1839 101.978 48.2702 109.681C47.756 110.994 48.3559 111.169 49.6413 111.082C52.3836 110.819 55.2116 110.644 57.954 110.907C65.6667 111.345 72.1797 114.758 77.1502 121.499ZM303.049 78.7815C329.701 79.4818 340.841 96.4636 345.04 121.061C348.64 116.772 352.925 113.533 357.981 111.782C363.037 110.031 368.265 109.856 373.406 111.082C374.006 106.53 368.779 92.7871 363.808 86.222C363.723 87.7976 363.808 88.848 363.551 89.8109C362.694 92.9622 361.066 95.5007 358.581 97.7766C353.353 102.591 345.212 101.978 341.184 97.0763C335.528 90.3361 330.643 82.9832 325.33 75.9804C319.845 68.715 314.104 61.7997 306.819 56.1975C299.278 50.4202 291.051 47.0938 281.539 47.3564C279.053 47.444 276.568 47.9692 273.997 48.3193C275.54 49.8074 277.082 50.6828 278.625 51.6456C285.652 55.8473 292.679 59.9615 297.735 66.7892C300.306 70.2906 302.363 74.0546 303.049 78.7815ZM307.505 139.443C309.048 137.78 309.048 136.204 307.762 132.528C307.334 132.528 306.819 132.44 306.305 132.528C300.735 133.578 295.165 134.891 289.509 135.504C286.595 135.854 287.195 137.167 287.28 139.093C287.366 143.382 287.88 147.934 286.938 152.048C285.824 156.95 283.424 161.502 281.539 166.141C281.024 167.367 280.939 167.98 282.396 167.98C285.909 168.067 289.423 167.717 292.851 168.242C296.621 168.855 300.564 169.73 303.477 172.707C305.191 174.457 306.991 174.107 308.79 173.057C309.562 172.619 310.419 172.094 311.19 171.656C319.417 167.017 326.101 160.889 330.558 152.398C333.471 146.796 335.357 140.931 335.871 134.279C331.757 133.578 327.73 132.966 323.702 132.44C323.188 132.353 322.331 133.141 322.159 133.753C321.474 136.117 321.217 138.655 320.445 141.019C317.703 149.422 309.305 153.974 302.02 152.223C297.65 151.173 294.907 147.409 295.422 143.47C295.764 140.844 296.879 138.48 299.278 137.43C302.449 136.029 305.277 136.73 307.505 139.443ZM86.4055 134.279C86.1484 140.494 90.8618 152.924 95.2324 158.351C100.46 164.916 106.973 169.73 114.343 173.319C115.2 173.757 116.742 173.669 117.514 173.144C123.255 168.943 129.683 167.542 136.539 167.63C138.167 167.63 139.795 167.805 141.423 167.98C140.309 165.704 139.367 163.515 138.338 161.502C134.568 154.062 133.196 146.271 134.996 138.043C135.424 136.204 134.91 135.854 133.368 135.679C131.911 135.504 130.625 134.979 129.169 134.716C124.712 133.929 120.256 133.228 115.8 132.616C115.2 132.528 114.086 133.141 114 133.578C113.572 135.417 113.486 137.43 113.229 139.968C114.429 139.181 114.943 138.83 115.457 138.48C117.514 137.342 119.57 136.204 122.141 137.342C125.141 138.568 126.769 141.019 126.769 143.995C126.769 146.621 125.655 148.985 123.255 150.823C120.599 152.836 117.771 152.398 115.114 152.223C111.172 151.873 107.658 150.385 105.002 146.884C102.26 143.382 100.717 139.356 100.117 135.066C99.7743 132.44 98.3175 132.353 96.5178 132.616C93.2613 132.966 89.9191 133.666 86.4055 134.279ZM92.5757 336.222C100.803 343.225 109.801 344.45 119.313 342.524C129.083 340.511 136.024 334.384 141.423 325.718C141.937 331.32 142.195 336.66 141.852 341.999C141.595 346.376 140.395 350.665 136.11 352.854C133.882 353.991 131.397 354.517 128.911 355.305C128.997 355.567 129.083 355.917 129.169 356.355C130.283 359.856 131.397 363.358 132.596 366.772C132.768 367.209 133.882 367.647 134.396 367.472C138.51 366.421 142.537 366.334 145.794 369.223C148.536 371.586 150.679 374.562 153.25 377.451C153.25 376.926 153.421 376.4 153.25 376.138C151.536 372.636 149.479 369.223 148.193 365.546C146.651 360.994 145.194 356.267 144.68 351.541C143.823 344.013 144.766 336.484 147.336 329.394C150.507 320.466 155.563 312.587 160.962 304.972C164.39 300.07 168.589 295.693 172.531 291.229C175.788 287.64 179.216 284.226 182.729 280.812C184.958 278.711 185.215 277.924 182.987 275.735C180.501 273.284 177.845 271.096 175.017 268.645C173.817 271.796 172.96 274.51 171.76 277.048C167.818 285.452 163.962 293.942 158.134 301.208C154.278 305.935 150.679 310.924 146.479 315.389C138.852 323.442 129.94 329.657 119.742 333.858C114 336.222 108.43 336.835 103.631 331.845C102.26 330.357 101.403 328.344 100.031 326.243C97.7176 329.569 95.2324 332.72 92.5757 336.222ZM321.731 325.805C318.56 334.296 311.533 337.973 304.248 334.909C299.878 333.071 295.593 330.707 291.565 328.169C287.023 325.192 282.481 322.041 278.539 318.365C274.083 314.163 270.055 309.524 266.113 304.709C259.686 296.831 254.887 287.815 250.773 278.449C249.402 275.385 248.288 272.146 246.917 268.82C245.889 269.608 245.117 270.133 244.517 270.746C242.546 272.759 240.575 274.685 238.776 276.873C238.433 277.311 238.519 278.624 238.947 279.062C241.261 281.95 243.832 284.751 246.146 287.64C252.144 294.993 258.4 302.171 264.056 309.786C270.655 318.627 275.111 328.606 277.082 339.636C277.597 342.262 277.854 345.063 277.682 347.776C277.511 351.103 276.74 354.517 276.225 357.843C275.283 363.795 272.969 369.31 269.884 374.475C269.284 375.438 268.855 376.4 268.427 377.363C268.684 377.538 268.855 377.626 269.113 377.801C274.083 371.061 278.882 363.97 288.566 367.997C290.108 363.62 291.565 359.506 293.022 355.392C292.251 355.217 291.137 355.129 290.108 354.867C285.995 353.729 282.996 351.628 281.453 347.164C278.968 340.073 280.596 333.071 280.682 325.805C281.11 326.068 281.367 326.243 281.539 326.418C281.796 326.681 281.967 326.943 282.139 327.293C285.652 333.771 290.965 338.235 297.478 341.036C302.192 343.05 307.334 343.837 312.647 343.4C318.389 342.875 323.616 341.124 328.158 337.622C328.587 337.272 329.101 336.134 328.929 335.784C326.616 332.37 324.387 329.307 321.731 325.805ZM86.7483 272.584C85.8056 272.759 85.3772 272.759 85.0344 272.847C78.2643 274.422 75.779 277.311 75.8647 283.263C75.9504 287.377 79.2926 291.229 84.5202 292.017C87.691 292.542 92.4043 289.303 93.1756 285.802C94.2897 280.812 95.3181 275.823 93.347 270.746C92.4043 268.295 90.7761 266.019 91.5474 263.043C92.49 259.804 91.376 258.666 88.0338 258.491C86.7483 258.403 85.2915 258.053 84.3488 257.265C81.6065 254.989 79.1212 252.451 76.5503 249.912C72.4368 245.886 68.152 241.947 65.8381 236.432C65.0669 234.506 64.467 232.493 63.6957 230.217C63.1815 231.005 62.9244 231.443 62.6673 231.88C59.3251 238.183 54.8689 243.61 48.9557 247.461C46.3848 249.125 46.3848 251.05 47.0704 253.501C47.4132 254.639 47.8417 255.777 48.2702 256.915C49.8127 261.204 52.8978 263.83 57.1827 264.531C63.2672 265.494 69.3517 266.019 75.4362 266.719C79.8068 266.982 83.3204 269.083 86.7483 272.584ZM358.666 230.392C358.152 231.267 357.724 231.705 357.638 232.143C356.781 237.307 353.782 241.159 350.354 244.748C346.754 248.424 342.984 252.013 339.299 255.515C338.699 256.127 337.499 256.04 336.814 256.653C335.614 257.703 333.386 256.828 332.957 259.366C332.614 261.73 332.014 264.181 330.815 266.106C327.215 271.884 326.958 277.924 328.415 284.314C329.701 289.916 335.357 293.33 340.07 291.316C343.498 289.828 346.583 287.377 346.155 281.6C345.897 277.661 342.727 273.809 338.956 273.372C337.928 273.284 336.899 272.934 335.699 272.671C338.785 268.82 342.727 266.807 347.44 266.456C351.811 266.106 356.181 265.844 360.466 265.319C362.437 265.056 364.494 264.618 366.379 264.006C372.635 261.905 374.52 256.478 375.634 250.613C375.72 249.912 375.035 248.862 374.435 248.337C373.149 247.199 371.607 246.323 370.321 245.273C365.608 241.246 361.751 236.52 358.666 230.392ZM398.516 213.41C397.23 214.373 396.288 214.811 395.773 215.511C392.945 219.363 389.003 221.026 384.547 221.201C375.292 221.639 368.35 216.562 361.58 210.959C359.866 209.559 358.152 207.983 356.181 207.108C355.753 206.933 354.21 209.034 353.182 210.084C353.096 210.172 353.01 210.172 352.925 210.172C352.753 210.697 352.41 211.397 352.582 211.747C355.753 216.737 358.752 221.901 362.351 226.541C366.379 231.705 372.207 234.594 378.291 236.607C380.434 237.307 382.833 237.833 385.061 237.57C389.26 237.22 392.774 235.382 393.888 230.655C393.974 230.392 394.317 230.129 394.916 229.517C394.831 230.742 394.916 231.53 394.745 232.23C393.288 238.183 387.375 241.509 381.376 240.196C374.435 238.62 368.264 235.557 362.78 230.917C362.694 231.18 362.608 231.355 362.608 231.53C362.78 231.968 362.866 232.318 363.123 232.668C367.493 240.021 373.578 245.361 381.205 248.687C385.661 250.613 390.632 251.576 395.174 248.687C403.572 243.522 405.457 233.193 403.4 225.052C402.543 221.201 400.315 217.524 398.516 213.41ZM65.9238 206.495C64.0385 208.158 62.753 209.296 61.3819 210.347C56.5828 214.286 51.698 218.05 45.6992 219.975C38.2435 222.426 31.5591 221.551 26.0745 215.249C24.2749 213.148 23.2465 214.986 22.4752 216.211C17.5048 224.177 16.0479 232.668 20.2471 241.334C24.1035 249.212 30.1023 252.013 38.3292 249.562C45.3564 247.461 50.8411 242.822 55.7258 237.395C57.3541 235.557 58.5538 233.281 59.925 231.18C58.8109 231.18 58.2111 231.53 57.6112 231.968C57.1827 232.23 56.8399 232.668 56.4114 233.018C50.8411 237.307 44.6709 240.196 37.7294 240.371C31.9019 240.546 26.2459 235.907 27.8742 230.129C28.2169 230.917 28.3026 231.53 28.6454 231.88C29.9309 233.543 31.045 235.732 32.7589 236.52C34.73 237.482 37.3009 237.395 39.6147 237.22C46.6419 236.607 52.555 233.281 57.7826 228.554C62.2388 224.527 64.9812 219.188 68.2377 214.198C69.5231 212.272 69.4374 210.784 68.0663 209.121C67.2093 208.246 66.6094 207.37 65.9238 206.495ZM189.842 219.888C188.985 223.914 187.529 227.328 184.101 229.692C183.072 230.392 181.958 231.355 181.701 232.405C181.187 234.594 181.273 236.957 181.101 239.146C180.844 242.647 178.702 244.835 176.045 246.674C176.731 242.122 180.073 238.095 178.102 233.368C174.845 234.156 172.789 235.819 173.56 239.671C172.789 239.758 172.017 239.846 171.332 239.933C171.503 240.108 171.76 240.284 171.932 240.371C171.417 241.334 170.903 242.209 170.389 243.172C170.132 243.085 169.875 242.997 169.618 242.822C170.046 240.809 170.56 238.795 171.075 236.169C162.419 238.358 155.135 242.297 147.851 247.724C148.965 247.987 149.479 248.162 150.079 248.337C152.393 248.774 154.878 248.862 157.106 249.65C162.591 251.663 168.161 252.538 173.988 252.626C175.017 252.626 176.216 253.239 176.902 253.939C178.273 255.34 179.302 257.09 180.673 258.578C183.929 262.08 187.357 265.581 190.956 269.258C192.756 266.281 194.213 264.006 195.413 261.642C197.127 258.403 198.669 255.165 200.212 251.838C202.954 245.886 203.811 239.933 199.783 234.069C196.527 229.429 191.214 226.103 189.842 219.888ZM191.214 285.452C187.443 290.529 183.758 295.168 181.787 301.033C179.901 306.635 176.988 311.8 176.816 317.927C176.731 323.879 176.302 329.919 175.959 335.872C176.216 335.959 176.474 336.047 176.731 336.134C179.901 332.108 183.844 330.97 188.814 332.545C188.814 330.707 189.071 329.132 188.728 327.731C188.043 324.317 188.9 321.341 190.614 318.452C193.613 313.463 197.298 309.086 202.011 306.11C204.497 304.534 205.097 302.959 204.754 300.595C204.24 297.006 203.468 293.592 201.84 290.178C197.898 281.6 192.585 274.247 185.643 268.12C182.558 265.406 179.559 262.692 177.502 259.104C176.302 257.003 174.845 255.164 171.675 255.515C169.018 255.865 166.19 255.427 163.533 254.814C158.82 253.764 154.278 252.188 149.565 251.05C145.537 250.087 144.166 250.875 142.28 254.552C142.794 254.639 143.394 254.814 143.909 254.902C146.737 255.34 149.565 255.69 152.393 256.215C158.134 257.265 163.533 259.541 169.446 259.629C171.503 259.629 173.474 260.679 174.588 262.955C175.702 265.231 177.073 267.332 179.216 268.82C180.33 269.608 181.53 270.396 182.558 271.271C188.386 276.348 193.099 282.475 196.441 289.391C198.412 293.417 198.926 298.057 199.955 302.521C200.297 304.097 199.526 305.235 197.727 305.235C197.041 293.592 194.984 292.805 191.214 285.452ZM90.7761 57.5105C90.4333 57.6856 90.0905 57.7731 89.7477 57.9482C82.4634 62.1498 75.3505 66.7017 69.1803 72.5665C64.3813 77.1183 60.6963 82.0203 61.8103 89.3732C62.2388 92.2619 66.3523 97.3389 69.0946 97.9517C74.3222 99.1771 78.35 96.8137 81.3494 93.0497C86.0627 87.0098 90.1762 80.6197 94.5468 74.3172C99.2601 67.4895 104.573 61.0994 111.001 55.9349C114.771 52.9587 118.885 50.5077 123.255 47.5315C112.286 48.4944 102.774 52.1709 94.1183 59.1737C85.5486 66.0014 78.1786 73.7045 72.3511 83.0707C76.0361 72.654 82.7205 64.6884 90.7761 57.5105ZM331.243 57.7731C339.213 65.0385 346.754 72.654 350.011 83.5084C344.184 74.0546 336.814 66.0889 328.244 59.1737C319.503 52.0833 309.562 48.4068 298.421 47.7066C299.021 48.3193 299.792 48.5819 300.478 49.0196C303.306 50.5952 306.477 51.8207 308.79 53.9216C313.675 58.2983 318.474 62.8501 322.588 68.0147C328.501 75.3676 333.814 83.3333 339.47 90.8613C341.098 93.0497 342.984 95.1505 345.126 96.5511C347.869 98.3018 351.039 99.0896 354.382 97.1638C358.581 94.8004 360.295 91.5616 360.123 86.5721C359.952 82.633 358.838 79.2192 356.353 76.3305C349.325 68.4524 340.67 62.5875 331.243 57.7731ZM338.27 305.585C337.413 301.646 336.728 298.494 335.957 295.343C335.871 294.905 335.1 294.293 334.585 294.205C331.757 293.942 330.043 292.367 328.329 290.266C325.587 286.677 324.73 282.738 324.73 278.361C324.73 276.873 324.387 274.86 323.359 274.16C319.074 270.746 314.789 267.244 309.99 264.618C305.705 262.342 300.735 261.379 296.279 259.366C294.136 258.403 292.851 259.016 291.737 259.804C297.65 285.014 312.647 300.333 338.27 305.585ZM176.902 338.323C176.902 342.174 176.731 345.851 176.902 349.44C177.245 355.48 170.989 361.957 164.904 361.52C162.162 361.344 159.505 360.732 155.992 360.119C158.648 364.933 160.791 369.748 163.79 373.774C169.104 380.952 175.788 386.905 183.501 391.369C184.101 391.719 185.472 391.719 185.986 391.194C191.128 386.467 194.556 380.515 197.298 374.037C195.156 373.774 193.356 373.512 191.471 373.249C186.243 372.461 182.215 368.697 181.53 364.408C180.587 358.718 181.444 353.116 182.472 347.514C183.501 342.262 181.444 338.673 176.902 338.323ZM224.978 374.212C227.292 380.427 230.806 385.854 235.262 390.756C236.719 392.332 237.919 392.157 239.547 391.106C248.631 385.154 256.601 377.976 261.914 368.26C263.285 365.721 264.485 363.183 265.77 360.644C265.599 360.469 265.342 360.294 265.17 360.119C264.571 360.294 263.971 360.469 263.371 360.732C256.344 363.358 251.116 361.607 247.003 355.83C245.46 353.729 245.032 351.103 245.46 348.214C245.974 345.063 245.546 341.824 245.546 338.235C244.003 338.848 242.375 338.935 241.604 339.898C240.575 341.124 239.547 342.875 239.633 344.363C239.89 350.403 240.661 356.355 241.004 362.395C241.261 366.772 238.004 371.586 233.719 372.724C230.891 373.249 228.063 373.599 224.978 374.212ZM40.3003 114.321C42.1856 113.533 44.7566 113.708 45.185 110.994C46.3848 104.429 48.87 98.3893 51.7837 92.3494C56.6685 81.9327 63.7814 73.4419 72.2654 66.0014C79.3783 59.7864 87.4339 54.972 96.0893 51.6456C102.431 49.1947 109.03 47.5315 115.628 45.8683C118.885 45.0805 122.398 45.1681 125.826 44.6428C134.053 43.4174 142.195 44.3802 150.336 46.0434C153.078 46.5686 155.306 45.9559 157.192 43.3298C131.911 35.2766 107.487 37.3774 84.6059 50.7703C60.5249 64.8634 45.185 85.8718 40.3003 114.321ZM264.913 43.4174C267.313 45.5182 269.027 46.7437 272.112 45.9559C276.397 44.9054 280.853 44.4678 285.309 44.2927C289.423 44.1176 293.536 44.6428 297.65 44.7304C307.076 45.0805 316.16 47.444 324.816 51.1204C331.243 53.834 337.328 57.5105 343.327 61.2745C352.582 67.0518 359.866 74.9299 365.951 84.1211C371.178 92.0868 374.606 100.753 376.834 109.944C377.52 112.833 378.805 113.971 382.233 114.233C376.149 82.9832 358.581 61.0119 331.072 47.444C309.905 36.9398 287.795 36.2395 264.913 43.4174ZM289.337 224.702C289.937 224.265 290.537 224.002 290.88 223.564C294.308 219.013 297.821 214.548 301.163 209.909C301.592 209.296 301.678 207.983 301.335 207.458C299.964 205.795 298.592 203.781 296.022 204.219C291.308 205.094 286.595 206.232 281.796 206.933C274.683 207.983 268.084 206.495 262.857 201.243C260.714 199.055 259.257 196.078 257.286 193.19C255.915 197.654 254.287 202.031 253.087 206.583C252.402 209.296 252.23 212.272 252.144 215.073C252.144 217.174 252.744 219.363 253.001 221.464C253.173 222.601 253.087 223.564 254.801 222.952C257.286 221.901 260.029 221.464 262.428 220.238C267.227 217.875 272.112 215.949 277.597 216.386C282.996 216.824 287.023 219.8 289.337 224.702ZM212.381 130.252C212.809 130.515 212.981 130.777 213.238 130.777C213.666 130.777 214.009 130.602 214.438 130.602C218.808 130.077 223.264 129.552 227.635 129.114C230.72 128.764 233.462 128.239 234.834 124.825C235.862 122.199 237.833 120.536 240.661 119.923C242.032 119.66 243.489 119.573 245.803 119.223C238.261 109.069 231.063 99.4397 223.693 89.4608C223.179 90.4236 222.922 90.7738 222.75 91.299C221.379 95.7633 220.094 100.228 218.637 104.604C217.094 108.981 215.295 113.27 213.752 117.647C213.409 118.697 213.066 120.273 213.581 120.973C215.637 124.387 214.609 127.276 212.381 130.252ZM168.418 223.127C169.189 219.8 169.961 216.824 170.646 213.936C170.732 213.673 170.732 213.41 170.646 213.148C169.618 208.858 168.761 204.569 167.561 200.368C166.875 198.004 165.761 195.728 164.562 192.927C161.562 200.718 156.849 205.007 149.393 206.583C142.709 207.983 136.624 207.108 130.454 204.919C126.855 203.694 123.084 203.431 120.513 208.246C124.627 213.848 128.654 219.363 132.768 224.877C133.111 224.352 133.453 223.739 133.796 223.214C135.339 220.413 137.653 218.05 140.566 217.262C146.565 215.686 152.478 216.474 158.049 219.625C161.305 221.376 164.647 223.389 168.418 223.127ZM297.735 200.543C296.193 197.391 294.308 194.24 293.108 190.826C290.965 185.136 286.766 181.635 281.539 179.972C275.283 177.959 269.198 179.622 263.885 183.386C261.143 185.312 259.686 188.288 260.457 191.789C261.914 198.179 265.856 202.031 272.112 203.606C276.483 204.744 280.767 205.094 285.224 203.694C289.166 202.556 293.279 201.681 297.735 200.543ZM123.941 200.98C126.169 201.155 127.626 200.98 128.911 201.33C132.596 202.206 136.196 203.694 139.881 204.307C147.594 205.62 154.364 204.044 159.591 197.391C162.933 193.102 162.762 186.887 158.477 183.648C150.079 177.258 139.024 177.258 132.082 186.187C128.74 190.476 126.769 195.728 123.941 200.98ZM177.073 118.96C177.245 119.223 177.331 119.398 177.502 119.66C180.844 119.31 183.844 120.01 186.072 122.724C186.243 122.899 186.757 122.724 187.1 122.899C188.386 123.424 189.757 123.95 191.042 124.65C193.527 126.138 195.756 127.976 198.412 129.114C200.469 129.989 202.954 129.814 205.182 130.252C207.667 130.777 209.381 129.464 210.753 127.801C212.209 125.963 212.381 123.862 210.753 121.849C209.124 119.923 207.496 117.997 206.039 115.984C205.354 115.021 204.839 113.795 204.668 112.57C204.325 110.207 204.668 107.756 204.068 105.567C202.954 101.19 201.497 96.8137 200.126 92.5245C199.869 91.6491 199.098 90.8613 198.584 89.986C197.898 90.5987 197.212 91.2115 196.612 91.9117C192.499 97.3389 188.386 102.679 184.443 108.193C181.787 111.782 179.473 115.371 177.073 118.96ZM249.488 210.609C250.43 203.694 252.487 197.391 255.315 191.176C258.829 183.386 263.971 178.484 272.369 176.733C279.139 175.333 284.795 177.433 289.851 181.548C294.393 185.224 296.45 190.564 298.764 195.816C300.135 199.055 301.849 202.118 303.392 205.27C304.077 206.67 304.848 206.758 306.134 205.707C307.505 204.569 309.133 203.781 310.504 202.643C311.104 202.206 311.79 201.243 311.618 200.63C310.162 194.415 309.048 188.113 306.905 182.16C305.02 176.821 300.735 173.144 295.165 171.919C288.994 170.518 282.653 170.606 276.311 171.744C267.141 173.407 259.771 177.871 254.458 185.662C250.259 191.877 247.774 198.879 246.06 206.145C245.374 209.646 245.889 210.259 249.488 210.609ZM176.731 209.121C175.017 201.33 172.703 193.89 168.589 187.062C163.705 179.009 156.677 174.282 147.851 172.094C141.852 170.606 135.767 170.431 129.768 171.306C123.084 172.269 117.599 175.595 115.114 182.248C113.143 187.587 112.029 193.19 110.829 198.792C110.315 200.98 110.658 203.081 113.4 203.869C114.257 204.044 115.114 204.744 115.714 205.445C117.171 207.108 118.285 206.495 119.056 204.919C121.027 200.718 123.084 196.516 124.798 192.227C128.483 183.036 138.253 174.195 149.222 176.821C152.821 177.696 156.763 178.659 159.42 180.935C163.876 184.611 166.79 189.688 168.504 195.466C170.046 200.543 171.589 205.62 173.303 210.872C174.417 210.259 175.531 209.734 176.731 209.121ZM130.197 370.536C127.369 374.212 124.798 377.188 122.57 380.427C119.056 385.504 115.885 390.669 116.485 397.409C116.828 401.26 118.199 403.886 121.627 405.199C124.541 406.337 127.54 407.213 130.625 407.826C132.682 408.263 134.825 408.876 137.053 407.388C141.595 404.324 144.423 394.87 141.937 389.881C140.738 387.43 139.538 384.979 138.081 382.615C135.596 378.764 133.025 374.912 130.197 370.536ZM291.908 370.798C288.566 375.875 285.395 380.427 282.653 385.241C279.311 391.019 277.854 397.146 281.71 403.449C283.681 406.6 286.766 408.876 289.166 408.263C291.994 407.563 294.822 407.038 297.564 406.25C300.906 405.199 304.677 404.237 305.448 400.035C305.962 397.146 306.134 393.995 305.363 391.194C303.906 385.942 300.992 381.302 297.564 377.101C295.679 375 293.879 373.074 291.908 370.798ZM325.587 372.549C325.587 377.451 315.132 388.743 308.276 390.669C308.276 394.258 308.276 397.847 308.276 401.611C310.847 399.86 313.247 398.372 315.561 396.621C321.559 391.894 326.016 386.029 328.244 378.501C330.386 371.323 326.444 363.795 321.474 360.294C319.246 358.718 316.846 357.58 314.446 356.267C314.446 356.005 314.532 355.742 314.532 355.48C318.131 355.305 321.902 354.604 325.416 356.005C328.929 357.318 332.1 359.244 334.243 362.745C334.671 360.382 335.1 358.106 335.014 355.917C334.928 353.116 334.414 350.403 333.986 347.601C333.728 345.851 332.443 345.851 331.329 346.639C325.844 350.403 319.674 351.978 313.247 353.116C304.848 354.604 300.306 358.718 298.25 367.034C302.963 365.721 307.334 367.209 311.79 368.522C316.332 369.835 320.788 371.148 325.587 372.549ZM87.0054 362.22C90.4333 359.944 93.347 357.756 96.6035 356.005C99.1744 354.604 105.602 355.042 107.401 356.267C105.088 357.668 102.688 358.981 100.46 360.644C93.7755 365.721 92.233 371.236 94.204 379.202C96.2607 387.692 102.002 393.47 108.773 398.372C110.315 399.51 111.943 400.297 113.572 401.26C113.743 397.847 113.914 394.783 114 391.807C114 391.281 113.315 390.494 112.8 390.406C107.916 388.83 104.573 385.154 101.488 381.302C99.3458 378.676 97.2891 375.788 96.6035 372.549C100.031 371.586 103.202 370.798 106.373 369.923C110.058 368.96 113.657 367.734 117.428 367.034C119.485 366.597 121.713 366.947 124.198 366.947C122.056 360.644 118.971 355.917 112.458 354.167C106.03 352.503 99.4315 351.628 93.5184 348.389C91.9759 347.601 90.519 346.814 88.2052 345.588C87.7767 351.628 87.3482 356.968 87.0054 362.22ZM350.439 213.848C348.983 215.161 347.44 216.299 346.24 217.787C345.555 218.575 345.212 219.888 345.126 221.026C345.04 222.952 345.383 224.877 345.555 226.716C346.069 233.106 339.213 240.196 332.871 239.671C329.272 239.408 325.844 237.833 321.731 236.695C320.103 237.657 317.703 238.971 315.218 240.459C318.731 243.872 318.303 247.636 317.275 251.225C317.96 251.488 318.646 251.488 318.988 251.838C321.559 254.639 324.987 255.252 328.329 255.164C332.357 255.077 336.471 254.814 339.642 251.225C343.498 246.761 348.383 243.085 351.896 238.358C358.067 229.867 355.838 220.588 350.439 213.848ZM180.416 336.222C185.9 338.673 185.386 343.225 185.215 347.514C184.958 352.416 184.358 357.318 184.272 362.22C184.186 365.634 185.9 368.347 189.071 369.398C191.728 370.273 194.556 370.623 197.384 370.711C201.412 370.798 204.582 367.734 205.696 363.708C207.153 358.018 205.954 352.591 202.783 348.127C199.869 344.1 196.184 340.511 192.242 337.535C189.071 335.171 185.129 333.771 180.416 336.222ZM241.347 336.309C241.347 335.959 241.347 335.609 241.347 335.259C239.29 335.259 237.233 335.084 235.262 335.259C231.149 335.697 228.235 338.585 225.321 341.211C223.179 343.137 221.208 345.326 219.494 347.689C217.18 350.84 216.237 354.692 215.98 358.543C215.723 362.22 216.58 365.809 219.408 368.522C223.521 372.286 230.891 371.236 234.662 368.61C236.119 367.647 237.576 365.371 237.576 363.708C237.662 358.281 237.319 352.854 236.719 347.426C236.205 342.962 237.747 338.498 241.347 336.309ZM289.509 239.496C289.766 239.496 290.023 239.408 290.28 239.408C289.337 235.469 288.652 231.443 287.537 227.591C285.738 221.726 280.939 218.225 275.026 219.275C271.084 219.888 267.141 221.464 263.542 223.127C260.286 224.615 257.115 226.103 253.344 226.015C252.573 226.015 251.63 225.84 251.116 226.19C249.145 227.591 247.345 229.167 245.46 230.742C248.631 231.968 252.059 233.018 255.315 234.506C260.971 237.045 266.713 239.758 272.198 242.647C275.54 244.398 278.282 247.724 282.738 245.01C281.71 242.209 280.853 239.146 279.568 236.257C278.796 234.594 277.597 233.106 276.311 231.793C273.569 229.079 270.227 230.217 266.97 230.48C264.571 230.655 262.085 231.443 259.343 228.992C264.485 228.641 268.855 228.291 273.312 228.116C278.539 227.941 281.624 232.318 282.738 236.87C283.167 238.708 284.538 240.371 285.309 242.034C287.023 241.071 288.223 240.284 289.509 239.496ZM378.805 123.162C372.121 127.889 371.093 130.69 373.064 136.817C374.263 140.581 378.034 142.332 381.376 142.507C384.633 142.682 388.061 139.968 389.346 136.642C391.574 130.865 388.061 122.111 382.062 118.085C375.634 113.883 368.607 112.22 361.152 113.971C355.153 115.371 349.668 118.085 346.669 124.212C345.897 125.788 345.726 126.663 347.783 127.188C349.84 127.801 351.382 127.714 353.01 126.05C354.296 124.737 355.924 123.687 357.552 122.637C363.38 118.785 372.892 118.96 378.805 123.162ZM161.648 262.167C160.962 261.817 160.705 261.555 160.362 261.467C154.964 260.242 149.65 259.104 144.251 257.966C141.595 257.44 140.138 258.403 139.795 261.379C139.538 264.006 138.681 266.632 138.081 269.17C137.567 271.446 136.71 273.722 135.767 275.735C133.025 281.425 129.854 286.94 126.341 292.192C124.37 295.256 121.456 297.619 118.971 300.333C136.11 291.141 151.193 279.499 161.648 262.167ZM42.6998 123.162C47.2418 120.798 51.441 119.485 55.8972 119.835C61.3819 120.273 66.0095 123.074 70.0373 126.838C71.0657 127.801 75.0935 127.801 75.9504 126.751C76.2075 126.401 76.3789 125.525 76.1218 125.175C75.0078 123.512 73.9794 121.674 72.5225 120.273C66.6094 114.496 59.5822 112.658 51.441 113.883C43.1283 115.109 36.701 118.96 33.2731 127.101C31.7305 130.69 31.045 137.08 35.1584 140.319C38.3292 142.857 41.6714 143.47 45.0993 141.544C48.0131 139.968 49.8127 137.255 49.8127 133.666C49.9841 128.676 47.9274 125.263 42.6998 123.162ZM303.563 301.033C301.935 299.195 300.392 297.444 298.764 295.693C290.623 287.29 285.824 277.136 283.253 265.756C282.481 262.167 278.454 258.141 274.854 258.578C270.826 259.016 266.97 260.329 262.942 261.117C260.714 261.555 260.543 262.342 261.828 264.181C267.399 272.409 273.74 279.674 281.367 285.977C288.394 291.842 295.85 296.569 303.563 301.033ZM243.489 13.8305C244.089 14.1807 244.432 14.3557 244.689 14.5308C248.288 16.7192 250.945 19.8704 251.802 23.9846C252.487 27.486 252.23 31.1625 252.402 34.7514C252.487 35.7143 252.659 36.5896 252.83 37.5525C254.03 43.855 258.657 47.444 263.542 50.5077C269.627 54.3592 276.225 57.423 282.396 61.2745C288.737 65.2136 294.136 70.2031 296.621 77.7311C297.393 80.2696 298.678 79.3067 300.049 78.869C299.107 72.654 295.679 67.8396 291.394 64.0756C287.28 60.4867 282.224 57.8606 277.597 54.7969C271.769 50.9454 265.685 47.444 260.029 43.2423C254.373 39.0406 252.83 31.5126 255.487 25.2101C256.943 27.3985 257.972 30.112 259.943 31.6877C262 33.4384 264.913 33.0007 267.484 32.3879C269.541 31.9503 272.026 27.6611 272.112 24.9475C272.283 21.0084 270.655 17.7696 267.57 17.1569C265.428 16.7192 262.857 16.4566 260.886 17.1569C258.829 17.8571 257.201 19.958 255.401 21.3585C250.173 13.1302 247.774 11.5546 243.489 13.8305ZM125.226 79.3067C127.455 70.4657 133.625 65.126 140.652 60.7493C147.336 56.5476 154.449 53.0462 161.134 48.8445C164.647 46.6561 167.99 43.7675 168.761 39.1281C169.275 36.152 169.532 33.0882 169.703 30.112C170.132 23.2843 171.675 17.1569 178.616 13.8305C177.416 13.3929 176.216 12.8676 175.188 13.0427C170.732 14.0056 168.504 17.5945 166.704 21.7087C163.962 18.645 161.305 16.1064 157.106 16.5441C154.021 16.8067 151.793 18.0322 150.764 20.8333C149.65 23.6344 150.25 28.8865 151.878 30.3746C156.592 34.6639 163.276 33.6134 165.504 27.1358C165.761 26.2605 166.19 25.5602 166.79 24.3347C167.133 25.7353 167.475 26.6106 167.475 27.3985C167.475 30.1996 167.904 33.0882 167.218 35.8018C166.19 40.2661 163.105 43.5049 159.334 45.8683C152.05 50.4202 144.68 54.7969 137.31 59.2612C132.511 62.2374 128.312 65.9138 125.398 70.8158C123.855 73.3543 122.227 76.0679 122.398 79.3942C123.427 79.3067 124.198 79.3067 125.226 79.3067ZM281.71 408.613C277.425 403.536 275.626 398.022 276.74 391.632C265.856 390.844 265.942 390.231 260.971 386.905C256.087 391.019 251.116 395.133 246.06 399.422C257.201 405.9 268.941 409.401 281.71 408.613ZM226.521 397.234C222.579 390.756 218.637 384.279 214.78 377.801C212.038 381.04 210.753 381.04 206.725 377.276C203.982 384.716 200.126 391.369 194.641 396.884C207.41 402.748 214.609 403.361 226.521 397.234ZM140.138 408.438C148.022 410.889 172.874 403.799 175.702 398.809C170.903 394.87 166.104 390.931 161.134 386.905C156.849 391.019 151.107 391.719 145.28 391.456C145.88 400.91 144.337 403.711 140.138 408.438ZM129.254 235.207C129.511 235.119 129.683 235.031 129.94 234.944C130.283 232.843 131.397 230.392 130.711 228.729C126.855 219.1 120.256 211.309 111.515 206.145C104.83 202.206 97.2891 199.842 90.1762 196.779C85.3772 194.765 80.4924 192.927 76.9788 188.638C76.0361 187.412 75.0935 186.274 74.0651 185.136C72.7796 183.823 71.3228 182.598 69.6088 181.022C69.5231 189.251 74.4079 194.153 79.9782 198.879C79.0355 199.317 78.1786 199.58 77.3216 200.017C76.4646 200.455 75.6076 200.893 74.665 201.33C77.493 205.27 77.4073 205.182 81.4351 204.219C82.9776 203.781 84.6059 203.344 86.1484 203.344C96.4321 203.169 105.602 206.758 113.486 213.06C119.913 218.225 124.969 224.965 127.883 233.018C128.312 233.718 128.826 234.419 129.254 235.207ZM341.955 198.792C349.325 192.84 352.668 187.15 352.239 181.11C349.754 183.736 347.526 186.362 345.126 188.813C344.012 189.951 342.898 191.264 341.527 191.964C336.128 194.59 330.729 197.391 325.159 199.492C312.561 204.044 301.763 210.872 294.565 222.689C292.422 226.19 290.108 229.692 292.508 234.069C292.765 234.506 292.594 235.207 292.679 236.257C293.108 235.294 293.365 234.856 293.536 234.419C296.022 228.116 299.278 222.251 303.906 217.349C309.305 211.572 315.903 207.721 323.359 205.27C329.444 203.256 335.614 202.031 341.87 204.307C345.04 205.445 346.155 203.781 347.269 201.155C345.469 200.368 343.841 199.667 341.955 198.792ZM213.923 57.8606C216.923 57.423 219.751 57.423 222.236 56.5476C226.092 55.2346 226.949 51.5581 227.378 47.8816C227.892 43.9426 228.235 39.916 229.006 36.0644C229.949 31.3375 232.862 27.8361 237.833 25.2101C235.348 24.7724 233.634 24.1597 231.834 24.0721C224.893 23.6344 219.751 28.799 217.008 35.1015C214.009 42.1043 213.752 49.6323 213.923 57.8606ZM185.643 25.035C187.786 27.6611 190.528 29.8494 191.556 32.6505C193.185 37.1148 193.699 42.0168 194.556 46.7437C195.241 50.5077 195.498 54.7094 199.612 56.3725C201.926 57.2479 204.497 57.3354 206.982 57.6856C207.325 57.6856 208.01 56.6351 208.01 56.0224C208.439 49.2822 207.839 42.542 205.354 36.2395C203.04 30.2871 199.526 25.4727 192.842 24.2472C190.271 23.722 187.614 23.8095 185.643 25.035ZM211.352 4.02661C207.325 8.49089 203.554 12.8676 202.611 18.7325C202.097 21.7962 201.669 25.2976 204.068 28.0112C206.725 31.0749 208.524 34.4888 209.296 38.5154C209.81 41.0539 210.41 43.5924 211.095 46.6561C211.438 45.6933 211.695 45.1681 211.781 44.7304C212.809 40.8788 213.581 36.8522 214.952 33.0882C215.809 30.8123 218.123 29.0616 218.808 26.7857C220.265 21.9713 220.008 16.8943 217.351 12.43C215.723 9.71638 213.581 7.09033 211.352 4.02661ZM138.767 334.209C124.027 348.127 108.344 350.227 91.2046 339.373C90.7761 340.424 90.2619 341.386 89.8334 342.349C94.8896 346.901 101.574 349.09 109.972 350.403C119.056 351.891 125.312 358.018 126.94 367.472C127.026 368.085 127.455 368.61 128.054 369.835C128.911 368.085 129.854 367.034 129.768 365.984C129.254 360.469 126.169 356.355 122.056 352.241C125.655 351.978 128.997 352.066 132.254 351.453C136.024 350.753 137.995 347.777 138.681 344.188C139.452 341.036 140.224 337.622 138.767 334.209ZM342.984 225.84C343.412 220.063 339.299 216.474 334.414 215.511C329.015 214.461 325.844 217.875 326.787 223.302C326.873 223.827 326.444 224.79 326.016 225.14C324.473 226.278 322.759 227.153 321.045 228.116C321.045 228.116 320.702 227.591 320.531 227.328C318.474 223.477 316.418 219.625 314.446 215.686C314.018 214.898 313.675 214.111 313.247 213.323C312.304 213.936 311.104 214.286 310.59 215.073C310.247 215.511 310.676 216.912 311.104 217.524C314.018 221.726 316.846 225.928 320.017 229.867C322.931 233.368 326.101 236.344 331.157 236.782C337.071 237.395 343.241 232.493 342.984 225.84ZM294.65 369.048C295.422 366.246 295.85 363.533 296.964 361.169C300.563 353.729 307.248 351.19 314.704 349.877C320.103 349.002 325.416 347.601 329.958 344.013C332.443 342.087 332.357 341.999 330.643 339.636C313.59 349.79 297.907 348.302 283.081 333.946C283.081 336.309 283.167 338.06 283.081 339.811C282.653 347.601 286.595 352.591 295.165 351.978C296.45 351.891 297.821 351.978 298.764 351.978C296.621 356.355 294.479 360.469 292.508 364.671C291.651 366.772 292.508 368.172 294.65 369.048ZM95.2324 224.702C96.4321 219.1 95.8322 217.524 91.9759 216.036C87.6053 214.286 82.1206 216.211 79.3783 222.339C77.9215 225.403 79.9782 232.493 83.0633 234.594C88.4623 238.358 93.6041 237.57 98.6603 233.456C103.974 229.167 107.916 223.739 111.086 217.7C111.515 216.912 112.029 215.599 111.686 215.161C111.001 214.198 109.801 213.76 109.201 213.323C106.887 218.05 105.002 222.339 102.774 226.541C102.002 227.941 100.803 229.079 99.0887 227.153C98.0604 226.103 96.6035 225.578 95.2324 224.702ZM210.838 116.159C211.095 116.071 211.267 116.071 211.524 115.984C212.809 112.307 214.266 108.631 215.466 104.954C217.18 99.7899 218.38 94.4503 220.522 89.5483C223.264 83.1582 226.349 76.9433 231.406 71.8662C234.491 68.8025 236.976 65.126 240.318 62.5C245.803 58.2108 251.802 54.5343 257.715 50.5077C256.601 47.5315 254.63 46.9188 251.887 49.3697C251.459 49.8074 251.03 50.3326 250.516 50.5952C242.546 54.0091 235.948 59.7864 230.292 66.0014C225.407 71.341 221.636 77.9937 218.294 84.5588C215.209 90.5112 213.066 97.0763 211.01 103.466C210.067 106.355 210.067 109.594 209.896 112.745C209.724 113.795 210.495 115.021 210.838 116.159ZM338.013 312.85C338.527 308.561 338.356 308.211 336.471 307.948C324.987 306.197 315.046 301.12 306.391 293.242C301.763 288.953 297.993 284.051 295.165 278.361C293.451 274.86 291.908 271.096 290.965 267.244C290.023 263.043 289.851 262.605 286.166 264.268C288.394 279.062 296.022 290.616 307.162 299.72C316.16 307.073 326.616 311.099 338.013 312.85ZM82.3777 213.848C73.6366 205.532 66.3523 196.429 60.1821 186.274C53.9262 176.12 49.6413 165.003 45.9563 153.624C44.8423 155.287 41.9285 155.462 42.9569 158.176C45.2707 164.128 47.1561 170.256 49.9841 175.945C53.5834 183.211 57.3541 190.476 62.0674 197.041C66.7808 203.694 72.6082 209.384 77.8358 215.599C79.0355 216.999 79.7211 216.737 80.7495 215.774C81.178 215.249 81.6922 214.636 82.3777 213.848ZM375.72 154.062C369.55 177.784 356.952 197.479 339.642 214.286C340.413 214.898 340.927 215.161 341.355 215.599C342.47 216.737 343.155 216.649 344.441 215.424C350.611 209.559 356.095 203.169 360.637 195.991C364.494 189.951 368.436 183.823 371.607 177.346C374.52 171.569 376.577 165.354 378.805 159.226C379.834 156.425 378.805 155.112 375.72 154.062ZM274.169 247.812C267.313 242.209 259.771 238.971 251.802 236.257C251.202 237.92 252.316 240.284 249.574 240.459C248.545 237.395 248.374 233.631 243.746 233.718C243.66 234.156 243.575 234.506 243.575 234.944C243.318 239.846 245.889 243.872 247.688 248.074C249.488 252.188 252.487 253.239 257.115 251.926C262.514 250.438 267.998 249.212 274.169 247.812ZM207.41 104.167C208.61 101.716 209.81 99.3522 208.61 96.5511C207.839 94.8004 207.239 93.0497 206.639 91.2115C203.125 80.7948 197.641 71.4286 189.928 63.7255C184.015 57.8606 177.331 52.8711 169.875 49.0196C166.875 47.444 165.933 47.619 163.876 50.8578C186.5 61.7122 200.726 79.6568 207.41 104.167ZM287.195 244.048C287.195 244.485 287.195 244.835 287.195 245.273C290.023 246.323 292.765 247.549 295.679 248.424C298.335 249.212 301.078 249.737 303.906 249.912C304.763 250 305.705 248.774 306.562 248.074C305.62 247.461 304.848 246.586 303.82 246.323C302.363 246.061 300.906 246.323 299.449 246.236C298.164 246.148 296.964 245.798 295.764 245.623C295.764 245.186 295.764 244.835 295.85 244.398C298.335 243.96 300.735 243.172 303.22 243.085C306.648 242.997 309.133 244.398 309.39 246.761C309.562 248.512 308.79 250.438 308.362 252.538C311.618 254.552 312.904 254.202 314.532 250.087C315.646 247.286 315.046 241.859 311.19 240.809C310.59 240.634 310.162 240.108 309.733 239.846C313.247 237.57 317.36 236.782 320.017 233.456C318.131 231.53 316.503 230.392 313.932 231.968C309.99 234.331 305.791 236.344 301.592 238.183C296.793 240.371 291.908 242.122 287.195 244.048ZM100.46 374.737C103.974 380.164 107.059 385.241 112.972 387.517C114.172 387.955 115.114 387.868 115.971 386.467C118.799 381.477 121.799 376.576 124.884 371.323C122.398 368.435 118.713 369.135 115.286 370.01C110.487 371.411 105.773 373.074 100.46 374.737ZM322.159 375C318.817 373.862 316.16 373.249 313.675 372.199C309.733 370.536 305.705 369.135 301.335 369.66C299.964 369.835 298.592 370.886 297.307 371.498C297.907 372.461 298.507 373.512 299.107 374.475C299.364 374.825 299.621 375.175 299.878 375.525C302.106 379.289 304.334 382.966 306.648 386.73C306.991 387.255 307.848 387.955 308.276 387.78C309.905 387.167 311.876 386.73 313.075 385.504C316.16 382.265 318.988 378.676 322.159 375ZM264.742 386.117C266.627 386.817 268.513 387.868 270.398 388.13C272.883 388.393 275.368 388.13 277.854 387.868C278.368 387.78 279.053 387.167 279.311 386.642C280.939 383.578 282.396 380.34 284.11 377.363C285.224 375.262 286.681 373.337 287.966 371.323C282.396 368.085 279.396 369.66 275.797 373.949C272.54 378.064 268.77 381.828 264.742 386.117ZM134.225 371.061C134.568 371.936 134.91 372.812 135.339 373.599C137.91 378.064 140.481 382.528 143.137 386.905C143.394 387.43 144.08 387.78 144.68 387.955C147.765 389.005 150.85 389.005 153.849 387.605C155.049 387.08 156.249 386.467 157.277 385.942C153.592 382.003 150.164 378.589 147.165 374.825C142.452 369.135 140.823 368.435 134.225 371.061ZM342.812 168.68C337.671 168.417 333.986 171.481 333.557 175.683C333.129 180.41 337.328 183.736 341.698 184.086C345.383 184.349 350.011 180.497 350.182 177.346C350.525 172.356 347.526 168.855 342.812 168.68ZM79.8925 168.592C75.3505 168.855 71.5799 172.269 71.837 176.383C72.1797 181.548 76.636 184.086 81.4351 183.999C84.863 183.999 89.2335 179.359 88.9764 176.383C88.6337 171.831 84.6059 168.417 79.8925 168.592ZM219.065 423.232C219.065 419.905 215.123 413.953 212.038 412.903C211.438 412.727 210.41 412.903 209.981 413.34C207.925 415.266 205.696 417.192 203.982 419.555C202.011 422.181 202.354 425.07 204.839 427.083C207.41 429.097 210.667 429.272 213.581 428.484C218.123 427.258 219.494 426.383 219.065 423.232ZM80.2353 207.545C80.9209 208.333 81.5208 209.121 82.1207 209.821C83.7489 211.66 85.1201 212.885 88.1195 212.36C94.1183 211.397 98.6603 215.949 98.746 222.164C98.746 222.689 98.8317 223.214 98.9174 223.652C100.289 224.002 101.06 224.002 101.66 222.339C103.031 218.662 104.83 215.161 106.373 211.66C97.4605 206.32 86.5769 205.007 80.2353 207.545ZM342.212 207.808C341.441 207.458 341.184 207.283 340.927 207.195C332.529 204.832 324.816 207.108 317.275 210.697C316.846 210.872 316.418 212.01 316.503 212.447C317.874 215.949 319.331 219.45 320.874 222.864C321.131 223.477 321.902 223.914 322.416 224.352C322.759 224.265 323.016 224.177 323.359 224.09C323.359 222.339 322.931 220.413 323.445 218.75C324.987 213.585 331.243 212.01 334.928 212.272C335.957 212.36 337.242 212.097 338.099 211.572C339.47 210.609 340.67 209.296 342.212 207.808ZM386.604 297.181C380.776 300.157 375.377 303.484 369.55 305.672C363.208 308.036 356.524 309.436 349.668 309.086C347.869 308.999 348.211 310.399 348.211 311.537C348.211 312.587 347.869 313.9 349.84 313.55C353.353 313.025 356.952 312.675 360.552 312.237C369.55 311.012 377.863 307.685 385.49 302.608C387.546 301.12 387.889 299.282 386.604 297.181ZM35.2441 296.306C35.2441 298.057 35.1584 299.195 35.2441 300.245C35.3298 301.033 35.5869 301.908 36.1011 302.433C36.8724 303.221 37.9008 303.659 38.8434 304.184C49.727 310.224 61.2962 313.463 73.8937 313.55C73.8937 312.587 74.1508 311.625 73.808 310.837C73.4652 310.049 72.6939 309.086 72.0083 308.999C67.1236 308.123 62.2388 307.685 57.3541 306.723C51.8694 305.672 46.7276 303.484 41.9285 300.508C39.7861 299.282 37.6437 297.882 35.2441 296.306ZM179.216 212.272C174.674 211.747 172.189 216.211 171.846 219.888C171.503 224.002 175.531 227.503 179.816 227.679C183.672 227.854 186.414 223.652 186.757 220.326C187.186 215.949 183.586 212.272 179.216 212.272ZM235.776 219.625C235.776 224.527 238.519 227.416 242.803 227.679C246.317 227.941 250.43 223.127 250.345 219.713C250.259 216.299 247.86 211.747 242.546 212.097C238.519 212.447 235.776 215.249 235.776 219.625ZM307.591 176.558C309.048 179.972 310.504 178.922 312.733 177.871C319.845 174.545 325.587 169.555 329.872 162.99C334.071 156.513 337.585 149.597 341.355 142.77C342.47 140.756 343.327 138.655 344.441 136.292C342.384 135.767 340.841 135.329 338.956 134.804C335.871 154.937 325.501 168.855 307.591 176.558ZM77.7501 136.555C78.1786 137.517 78.5214 138.305 78.8641 139.006C81.9493 144.87 85.1201 150.735 88.2052 156.6C93.347 166.141 100.46 173.582 110.058 178.396C112.886 179.797 112.886 179.797 114.172 176.733C111.001 174.807 107.658 173.144 104.573 170.956C99.4315 167.454 95.1467 162.99 91.6331 157.826C87.3482 151.698 84.863 144.958 83.7489 137.605C83.4061 134.979 82.8062 134.541 80.2353 135.592C79.6354 135.942 78.8641 136.204 77.7501 136.555ZM339.384 294.38C339.384 295.168 339.213 295.868 339.384 296.569C341.184 302.433 341.27 308.561 340.841 314.601C340.584 317.577 339.727 320.466 339.042 323.442C338.356 326.856 335.957 330.27 339.47 333.421C345.212 328.694 347.44 300.508 342.555 293.067C342.041 293.33 341.527 293.505 340.927 293.767C340.499 293.942 339.899 294.205 339.384 294.38ZM78.8641 293.417C75.4362 307.685 76.0361 321.078 82.6348 334.034C83.4918 332.195 84.4345 330.27 84.5202 328.344C84.6059 326.856 83.6632 325.368 83.2347 323.879C81.0066 316.877 80.5781 309.699 81.6922 302.346C82.1207 299.72 82.4634 297.094 82.8919 294.293C81.3494 293.943 80.1496 293.68 78.8641 293.417ZM211.095 66.0014C210.838 66.3515 210.495 66.7017 210.324 67.1393C208.867 70.7283 207.41 74.3172 206.039 77.9061C205.696 78.869 205.439 80.182 205.782 81.1449C206.982 84.2962 208.524 87.2724 209.896 90.3361C210.324 91.299 210.581 92.2619 211.01 93.3998C212.981 88.848 214.866 84.7339 216.58 80.5322C216.837 79.8319 216.751 78.694 216.409 77.9937C214.695 74.0546 212.895 70.2031 211.095 66.0014ZM126.169 236.87C126.341 236.607 126.512 236.432 126.598 236.169C125.912 234.856 125.312 233.543 124.541 232.405C121.799 228.116 119.056 223.827 116.143 219.625C115.028 218.05 114 218.312 113.143 220.063C111.943 222.426 110.658 224.877 108.944 226.803C107.573 228.379 108.258 228.992 109.458 229.692C113.4 231.618 117.342 233.631 121.284 235.382C122.827 236.082 124.541 236.432 126.169 236.87ZM295.764 236.257C296.193 236.432 296.707 236.782 296.964 236.695C302.363 234.244 307.762 231.793 313.161 229.254C313.504 229.079 313.59 227.766 313.247 227.241C312.047 225.052 310.59 223.039 309.39 220.851C307.848 218.137 307.334 218.137 305.363 220.326C301.335 225.052 298.25 230.305 295.764 236.257ZM115.543 112.833C115.885 115.634 116.314 117.822 116.485 120.098C116.571 121.323 116.571 122.199 118.199 122.461C123.855 123.337 129.511 124.3 135.082 125.263C135.082 125.263 135.082 125.087 134.91 124.912C131.568 120.623 128.312 116.422 124.969 112.22C124.798 111.957 124.37 111.782 124.112 111.87C121.027 112.132 118.028 112.482 115.543 112.833ZM286.595 125.263C287.195 125.438 287.366 125.525 287.537 125.525C293.022 124.475 298.507 123.512 303.906 122.286C304.506 122.111 305.277 121.148 305.448 120.448C306.048 118.347 306.391 116.071 306.734 113.883C306.819 113.445 306.22 112.395 305.877 112.395C303.649 112.045 301.42 112.045 299.278 111.695C298.078 111.52 297.393 111.607 296.621 112.833C295.25 115.196 293.536 117.384 291.822 119.573C290.194 121.499 288.394 123.249 286.595 125.263ZM253.173 174.107C254.287 166.842 255.744 160.452 254.801 153.011C249.916 157.563 244.946 160.889 241.946 166.229C245.717 168.855 249.231 171.306 253.173 174.107ZM167.732 153.449C167.304 153.624 166.961 153.887 166.533 154.062C167.218 160.101 167.904 166.141 168.675 172.181C168.761 172.619 170.303 173.319 170.646 173.057C173.646 170.956 176.559 168.767 179.387 166.492C179.73 166.229 179.73 165.003 179.473 164.741C177.245 162.29 174.931 159.926 172.531 157.651C170.989 156.162 169.361 154.849 167.732 153.449ZM48.9557 124.125C52.7264 127.538 52.555 132.09 52.555 136.817C55.2116 135.329 57.5255 133.841 59.925 132.703C62.4102 131.478 64.9812 130.515 67.5521 129.464C65.4953 124.387 53.0692 120.711 48.9557 124.125ZM373.235 124.125C368.864 121.061 357.638 124.125 354.467 129.114C359.438 131.653 364.322 134.104 369.636 136.817C369.207 131.915 369.379 127.363 373.235 124.125ZM234.919 169.118C235.433 168.68 235.776 168.417 236.033 168.067C241.089 161.765 246.66 155.987 253.001 151.085C255.144 149.422 255.315 147.234 254.801 144.608C254.287 144.783 253.773 144.695 253.43 144.958C250.688 147.146 247.86 149.247 245.289 151.698C241.946 155.024 238.861 158.613 235.605 162.027C234.576 163.078 232.348 163.953 232.348 164.916C232.348 166.316 233.891 167.629 234.919 169.118ZM234.319 393.557C228.578 388.13 224.293 382.003 222.15 374.387C221.722 372.812 218.294 370.886 216.409 370.973C218.637 379.202 222.322 386.555 227.721 393.12C230.72 396.971 231.149 395.746 234.319 393.557ZM205.611 370.711C203.554 372.374 200.212 372.199 199.526 375.963C199.098 378.064 197.984 380.164 196.784 382.003C194.213 386.029 191.385 389.881 188.557 393.907C189.928 394.345 191.042 396.884 192.927 394.87C199.098 388.043 203.725 380.252 205.611 370.711ZM304.934 129.464C305.02 129.639 305.02 129.727 305.105 129.902C305.705 129.727 306.734 129.464 306.734 129.289C306.734 128.151 306.648 126.926 306.305 125.788C306.134 125.35 305.105 125 304.591 125.087C298.507 126.225 292.508 127.451 286.423 128.764C285.824 128.939 284.795 130.165 284.967 130.602C285.309 131.74 285.566 133.403 287.623 132.791C290.708 131.828 293.793 131.04 296.964 130.427C299.621 129.989 302.277 129.814 304.934 129.464ZM117.428 124.737C115.028 124.825 115.371 126.751 115.457 127.976C115.543 128.676 116.485 129.814 117.085 129.814C123.255 129.639 128.997 131.653 134.91 132.791C135.596 132.878 136.796 131.915 137.138 131.127C137.396 130.602 136.624 128.939 136.024 128.851C129.854 127.363 123.598 126.05 117.428 124.737ZM335.528 326.068C336.042 323.967 336.471 321.428 337.328 319.153C338.442 316.439 337.328 315.826 334.928 315.213C330.558 314.163 326.358 312.587 322.074 311.274C321.559 311.099 320.96 311.187 320.617 311.099C325.501 316.089 330.386 320.991 335.528 326.068ZM86.4912 325.368C91.0332 320.466 95.8322 315.389 100.631 310.224C100.974 310.487 101.317 310.749 101.66 311.099C100.117 311.712 98.6603 312.412 97.032 312.763C93.4327 313.725 89.8334 314.601 86.2341 315.476C85.0344 315.739 83.9203 316.089 84.3488 317.664C85.0344 320.466 85.977 323.354 86.4912 325.368ZM335.785 123.687C336.042 119.835 333.386 114.583 328.929 115.371C326.273 115.896 325.244 117.822 324.13 119.835C323.188 121.499 323.616 122.199 325.501 122.374C328.929 122.724 332.272 123.249 335.785 123.687ZM86.5769 123.774C90.6047 123.162 94.3754 122.637 98.2318 122.111C97.9747 118.085 94.7182 114.933 91.376 115.459C88.548 115.896 86.1484 119.66 86.5769 123.774ZM250.773 181.285C252.487 178.134 252.316 176.471 249.316 174.895C245.889 173.144 242.975 170.518 239.804 168.242C239.29 168.855 238.519 169.468 238.261 170.168C238.004 170.781 238.09 172.006 238.519 172.269C242.461 175.333 246.574 178.221 250.773 181.285ZM185.043 171.744C182.472 168.33 182.472 168.33 179.473 170.518C177.159 172.269 174.845 174.02 172.36 175.508C169.789 176.996 169.361 178.309 171.503 181.11C175.959 177.959 180.501 174.895 185.043 171.744ZM294.65 109.944C293.793 109.244 293.194 108.718 292.936 108.543C289.337 112.658 285.995 116.947 282.224 120.711C280.596 122.374 280.253 123.424 282.139 125.087C287.109 120.886 291.48 116.071 294.65 109.944ZM129.34 108.718C127.969 109.156 127.026 110.031 128.483 111.782C131.825 115.809 135.167 119.923 138.595 123.862C139.024 124.3 140.395 124.475 140.823 124.125C141.338 123.687 141.595 122.461 141.338 121.761C141.166 121.236 139.966 121.061 139.452 120.448C136.196 116.772 132.939 112.833 129.34 108.718ZM218.465 75.9804C218.722 75.9804 218.98 75.9804 219.237 76.0679C219.751 75.0175 220.951 73.7045 220.693 72.9166C219.494 69.1526 217.951 65.5637 216.237 61.9748C215.894 61.187 214.523 60.8368 213.581 60.3116C213.409 61.0119 212.895 61.7997 213.066 62.3249C214.866 66.8767 216.666 71.4286 218.465 75.9804ZM209.553 61.4496C207.325 59.9615 206.725 60.2241 205.954 62.5875C205.097 65.3011 204.411 68.2773 202.697 70.3781C200.726 72.8291 201.497 74.2297 203.383 76.3305C205.525 71.2535 207.582 66.4391 209.553 61.4496ZM204.154 236.957C204.754 239.408 205.182 241.422 205.696 243.435C206.639 242.822 207.753 242.122 208.867 241.421C207.068 239.758 205.696 238.445 204.154 236.957Z" transform="translate(435.972 0.14209) rotate(90)" fill="white" style="mix-blend-mode:soft-light"/>
</svg>
